<?xml version="1.0" encoding="UTF-8" standalone="no"?>
<!-- Created with Inkscape (http://www.inkscape.org/) -->

<svg
   xmlns:dc="http://purl.org/dc/elements/1.1/"
   xmlns:cc="http://creativecommons.org/ns#"
   xmlns:rdf="http://www.w3.org/1999/02/22-rdf-syntax-ns#"
   xmlns:svg="http://www.w3.org/2000/svg"
   xmlns="http://www.w3.org/2000/svg"
   xmlns:sodipodi="http://sodipodi.sourceforge.net/DTD/sodipodi-0.dtd"
   xmlns:inkscape="http://www.inkscape.org/namespaces/inkscape"
   width="389.76379"
   height="460.62991"
   id="svg2"
   version="1.1"
   inkscape:version="0.48.5 r10040"
   sodipodi:docname="sismo_alerta_support.svg">
  <defs
     id="defs4" />
  <sodipodi:namedview
     id="base"
     pagecolor="#ffffff"
     bordercolor="#666666"
     borderopacity="1.0"
     inkscape:pageopacity="0.0"
     inkscape:pageshadow="2"
     inkscape:zoom="1.4"
     inkscape:cx="187.41672"
     inkscape:cy="285.66202"
     inkscape:document-units="px"
     inkscape:current-layer="layer1"
     showgrid="false"
     showguides="true"
     inkscape:guide-bbox="true"
     inkscape:window-width="1916"
     inkscape:window-height="1031"
     inkscape:window-x="4"
     inkscape:window-y="27"
     inkscape:window-maximized="1"
     fit-margin-top="0"
     fit-margin-left="0"
     fit-margin-right="0"
     fit-margin-bottom="0">
    <sodipodi:guide
       orientation="1,0"
       position="35.433071,521.23873"
       id="guide3755" />
    <sodipodi:guide
       orientation="1,0"
       position="350.7874,512.14736"
       id="guide3757" />
    <sodipodi:guide
       orientation="0,1"
       position="586.89863,35.43309"
       id="guide3759" />
    <sodipodi:guide
       orientation="0,1"
       position="629.32504,251.57482"
       id="guide3761" />
    <sodipodi:guide
       orientation="0,1"
       position="606.09153,318.89766"
       id="guide3763" />
    <sodipodi:guide
       orientation="0,1"
       position="621.24382,407.48033"
       id="guide3765" />
    <sodipodi:guide
       orientation="0,1"
       position="631.34534,389.7638"
       id="guide3767" />
    <sodipodi:guide
       orientation="1,0"
       position="159.44882,522.24889"
       id="guide3769" />
    <sodipodi:guide
       orientation="1,0"
       position="194.88189,511.13721"
       id="guide3771" />
    <sodipodi:guide
       orientation="1,0"
       position="233.85827,514.16767"
       id="guide3773" />
  </sodipodi:namedview>
  <metadata
     id="metadata7">
    <rdf:RDF>
      <cc:Work
         rdf:about="">
        <dc:format>image/svg+xml</dc:format>
        <dc:type
           rdf:resource="http://purl.org/dc/dcmitype/StillImage" />
        <dc:title />
      </cc:Work>
    </rdf:RDF>
  </metadata>
  <g
     inkscape:label="Layer 1"
     inkscape:groupmode="layer"
     id="layer1"
     transform="translate(0,-591.73228)">
    <rect
       style="fill:none;stroke:#000000;stroke-width:0.63101941;stroke-opacity:1"
       id="rect2985"
       width="389.13278"
       height="459.9989"
       x="0.31550971"
       y="592.04779" />
    <path
       sodipodi:type="arc"
       style="fill:none;stroke:#000000;stroke-width:1.30359781;stroke-miterlimit:4;stroke-opacity:1;stroke-dasharray:none;stroke-dashoffset:0"
       id="path4214"
       sodipodi:cx="-163.57143"
       sodipodi:cy="605.93359"
       sodipodi:rx="6.4285712"
       sodipodi:ry="6.4285712"
       d="m -157.14286,605.93359 c 0,3.55041 -2.87816,6.42857 -6.42857,6.42857 -3.5504,0 -6.42857,-2.87816 -6.42857,-6.42857 0,-3.5504 2.87817,-6.42857 6.42857,-6.42857 3.55041,0 6.42857,2.87817 6.42857,6.42857 z"
       transform="matrix(0.75066141,0,0,0.75066141,158.21983,562.07815)" />
    <path
       sodipodi:type="arc"
       style="fill:none;stroke:#000000;stroke-width:1.30359781;stroke-miterlimit:4;stroke-opacity:1;stroke-dasharray:none;stroke-dashoffset:0"
       id="path4214-0"
       sodipodi:cx="-163.57143"
       sodipodi:cy="605.93359"
       sodipodi:rx="6.4285712"
       sodipodi:ry="6.4285712"
       d="m -157.14286,605.93359 c 0,3.55041 -2.87816,6.42857 -6.42857,6.42857 -3.5504,0 -6.42857,-2.87816 -6.42857,-6.42857 0,-3.5504 2.87817,-6.42857 6.42857,-6.42857 3.55041,0 6.42857,2.87817 6.42857,6.42857 z"
       transform="matrix(0.75066141,0,0,0.75066141,473.57416,562.07815)" />
    <path
       sodipodi:type="arc"
       style="fill:none;stroke:#000000;stroke-width:1.30359781;stroke-miterlimit:4;stroke-opacity:1;stroke-dasharray:none;stroke-dashoffset:0"
       id="path4214-04"
       sodipodi:cx="-163.57143"
       sodipodi:cy="605.93359"
       sodipodi:rx="6.4285712"
       sodipodi:ry="6.4285712"
       d="m -157.14286,605.93359 c 0,3.55041 -2.87816,6.42857 -6.42857,6.42857 -3.5504,0 -6.42857,-2.87816 -6.42857,-6.42857 0,-3.5504 2.87817,-6.42857 6.42857,-6.42857 3.55041,0 6.42857,2.87817 6.42857,6.42857 z"
       transform="matrix(0.75066141,0,0,0.75066141,158.21983,345.93642)" />
    <path
       sodipodi:type="arc"
       style="fill:none;stroke:#000000;stroke-width:1.30359781;stroke-miterlimit:4;stroke-opacity:1;stroke-dasharray:none;stroke-dashoffset:0"
       id="path4214-0-6"
       sodipodi:cx="-163.57143"
       sodipodi:cy="605.93359"
       sodipodi:rx="6.4285712"
       sodipodi:ry="6.4285712"
       d="m -157.14286,605.93359 c 0,3.55041 -2.87816,6.42857 -6.42857,6.42857 -3.5504,0 -6.42857,-2.87816 -6.42857,-6.42857 0,-3.5504 2.87817,-6.42857 6.42857,-6.42857 3.55041,0 6.42857,2.87817 6.42857,6.42857 z"
       transform="matrix(0.75066141,0,0,0.75066141,473.57416,345.93642)" />
    <path
       sodipodi:type="arc"
       style="fill:none;stroke:#000000;stroke-width:1.30359781;stroke-miterlimit:4;stroke-opacity:1;stroke-dasharray:none;stroke-dashoffset:0"
       id="path4214-04-9"
       sodipodi:cx="-163.57143"
       sodipodi:cy="605.93359"
       sodipodi:rx="6.4285712"
       sodipodi:ry="6.4285712"
       d="m -157.14286,605.93359 c 0,3.55041 -2.87816,6.42857 -6.42857,6.42857 -3.5504,0 -6.42857,-2.87816 -6.42857,-6.42857 0,-3.5504 2.87817,-6.42857 6.42857,-6.42857 3.55041,0 6.42857,2.87817 6.42857,6.42857 z"
       transform="matrix(0.75066141,0,0,0.75066141,158.21983,190.03091)" />
    <path
       sodipodi:type="arc"
       style="fill:none;stroke:#000000;stroke-width:1.30359781;stroke-miterlimit:4;stroke-opacity:1;stroke-dasharray:none;stroke-dashoffset:0"
       id="path4214-04-9-2"
       sodipodi:cx="-163.57143"
       sodipodi:cy="605.93359"
       sodipodi:rx="6.4285712"
       sodipodi:ry="6.4285712"
       d="m -157.14286,605.93359 c 0,3.55041 -2.87816,6.42857 -6.42857,6.42857 -3.5504,0 -6.42857,-2.87816 -6.42857,-6.42857 0,-3.5504 2.87817,-6.42857 6.42857,-6.42857 3.55041,0 6.42857,2.87817 6.42857,6.42857 z"
       transform="matrix(0.75066141,0,0,0.75066141,158.19751,278.61358)" />
    <path
       sodipodi:type="arc"
       style="fill:none;stroke:#000000;stroke-width:1.30359781;stroke-miterlimit:4;stroke-opacity:1;stroke-dasharray:none;stroke-dashoffset:0"
       id="path4214-04-0"
       sodipodi:cx="-163.57143"
       sodipodi:cy="605.93359"
       sodipodi:rx="6.4285712"
       sodipodi:ry="6.4285712"
       d="m -157.14286,605.93359 c 0,3.55041 -2.87816,6.42857 -6.42857,6.42857 -3.5504,0 -6.42857,-2.87816 -6.42857,-6.42857 0,-3.5504 2.87817,-6.42857 6.42857,-6.42857 3.55041,0 6.42857,2.87817 6.42857,6.42857 z"
       transform="matrix(0.75066141,0,0,0.75066141,282.2394,278.61358)" />
    <path
       sodipodi:type="arc"
       style="fill:none;stroke:#000000;stroke-width:1.30359781;stroke-miterlimit:4;stroke-opacity:1;stroke-dasharray:none;stroke-dashoffset:0"
       id="path4214-04-0-3"
       sodipodi:cx="-163.57143"
       sodipodi:cy="605.93359"
       sodipodi:rx="6.4285712"
       sodipodi:ry="6.4285712"
       d="m -157.14286,605.93359 c 0,3.55041 -2.87816,6.42857 -6.42857,6.42857 -3.5504,0 -6.42857,-2.87816 -6.42857,-6.42857 0,-3.5504 2.87817,-6.42857 6.42857,-6.42857 3.55041,0 6.42857,2.87817 6.42857,6.42857 z"
       transform="matrix(0.75066141,0,0,0.75066141,282.23558,190.00859)" />
    <path
       sodipodi:type="arc"
       style="fill:none;stroke:#000000;stroke-width:1.30359781;stroke-miterlimit:4;stroke-opacity:1;stroke-dasharray:none;stroke-dashoffset:0"
       id="path4214-04-0-1"
       sodipodi:cx="-163.57143"
       sodipodi:cy="605.93359"
       sodipodi:rx="6.4285712"
       sodipodi:ry="6.4285712"
       d="m -157.14286,605.93359 c 0,3.55041 -2.87816,6.42857 -6.42857,6.42857 -3.5504,0 -6.42857,-2.87816 -6.42857,-6.42857 0,-3.5504 2.87817,-6.42857 6.42857,-6.42857 3.55041,0 6.42857,2.87817 6.42857,6.42857 z"
       transform="matrix(0.75066141,0,0,0.75066141,317.66865,278.61358)" />
    <path
       sodipodi:type="arc"
       style="fill:none;stroke:#000000;stroke-width:1.30359781;stroke-miterlimit:4;stroke-opacity:1;stroke-dasharray:none;stroke-dashoffset:0"
       id="path4214-04-0-3-6"
       sodipodi:cx="-163.57143"
       sodipodi:cy="605.93359"
       sodipodi:rx="6.4285712"
       sodipodi:ry="6.4285712"
       d="m -157.14286,605.93359 c 0,3.55041 -2.87816,6.42857 -6.42857,6.42857 -3.5504,0 -6.42857,-2.87816 -6.42857,-6.42857 0,-3.5504 2.87817,-6.42857 6.42857,-6.42857 3.55041,0 6.42857,2.87817 6.42857,6.42857 z"
       transform="matrix(0.50044094,0,0,0.50044094,315.69271,359.36443)" />
    <path
       sodipodi:type="arc"
       style="fill:none;stroke:#000000;stroke-width:1.30359781;stroke-miterlimit:4;stroke-opacity:1;stroke-dasharray:none;stroke-dashoffset:0"
       id="path4214-04-0-3-6-1"
       sodipodi:cx="-163.57143"
       sodipodi:cy="605.93359"
       sodipodi:rx="6.4285712"
       sodipodi:ry="6.4285712"
       d="m -157.14286,605.93359 c 0,3.55041 -2.87816,6.42857 -6.42857,6.42857 -3.5504,0 -6.42857,-2.87816 -6.42857,-6.42857 0,-3.5504 2.87817,-6.42857 6.42857,-6.42857 3.55041,0 6.42857,2.87817 6.42857,6.42857 z"
       transform="matrix(0.50044094,0,0,0.50044094,432.61677,359.36443)" />
  </g>
</svg>
