<?xml version="1.0" encoding="UTF-8" standalone="no"?>
<!-- Created with Inkscape (http://www.inkscape.org/) -->

<svg
   xmlns:dc="http://purl.org/dc/elements/1.1/"
   xmlns:cc="http://creativecommons.org/ns#"
   xmlns:rdf="http://www.w3.org/1999/02/22-rdf-syntax-ns#"
   xmlns:svg="http://www.w3.org/2000/svg"
   xmlns="http://www.w3.org/2000/svg"
   xmlns:sodipodi="http://sodipodi.sourceforge.net/DTD/sodipodi-0.dtd"
   xmlns:inkscape="http://www.inkscape.org/namespaces/inkscape"
   id="svg2"
   version="1.1"
   inkscape:version="0.48.5 r10040"
   width="413.75"
   height="311.25"
   xml:space="preserve"
   sodipodi:docname="sismo_alerta_mask.svg"><metadata
     id="metadata8"><rdf:RDF><cc:Work
         rdf:about=""><dc:format>image/svg+xml</dc:format><dc:type
           rdf:resource="http://purl.org/dc/dcmitype/StillImage" /><dc:title></dc:title></cc:Work></rdf:RDF></metadata><defs
     id="defs6" /><sodipodi:namedview
     pagecolor="#ffffff"
     bordercolor="#666666"
     borderopacity="1"
     objecttolerance="10"
     gridtolerance="10"
     guidetolerance="10"
     inkscape:pageopacity="0"
     inkscape:pageshadow="2"
     inkscape:window-width="1916"
     inkscape:window-height="1031"
     id="namedview4"
     showgrid="false"
     inkscape:zoom="2.1446066"
     inkscape:cx="232.51472"
     inkscape:cy="147.68263"
     inkscape:window-x="4"
     inkscape:window-y="27"
     inkscape:window-maximized="1"
     inkscape:current-layer="g10" /><g
     id="g10"
     inkscape:groupmode="layer"
     inkscape:label="sismo_alerta_etch_mask_bottom"
     transform="matrix(1.25,0,0,-1.25,0,311.25)"><g
       id="g14"
       transform="matrix(0.06,0,0,-0.06,24,225)"><g
         id="g16" /></g><g
       id="g20"
       transform="matrix(0.06,0,0,-0.06,24,225)" /><g
       id="g22"
       transform="matrix(0.06,0,0,-0.06,24,225)" /><g
       id="g8786"><g
         transform="matrix(0.06,0,0,-0.06,24,225)"
         id="g24"><path
           inkscape:connector-curvature="0"
           id="path26"
           style="fill:none;stroke:#000000;stroke-width:0.5;stroke-linecap:butt;stroke-linejoin:miter;stroke-miterlimit:10;stroke-opacity:1;stroke-dasharray:none"
           d="m 4.8,4.8 4714.81,0 0,3344.73 -4714.81,0 L 4.8,4.8 z" /></g><g
         transform="matrix(0.06,0,0,-0.06,24,225)"
         id="g28"><path
           inkscape:connector-curvature="0"
           id="path30"
           style="fill:#000000;fill-opacity:1;fill-rule:evenodd;stroke:none"
           d="m 4351.9195,839.95918 c 0,18.2254 -14.7746,33 -33,33 -18.2254,0 -33,-14.7746 -33,-33 0,-18.2254 14.7746,-33.00001 33,-33.00001 18.2254,0 33,14.77461 33,33.00001 z" /></g><g
         transform="matrix(0.06,0,0,-0.06,278.38317,179.35445)"
         id="g32"><path
           inkscape:connector-curvature="0"
           id="path34"
           style="fill:none;stroke:#000000;stroke-width:36;stroke-linecap:butt;stroke-linejoin:miter;stroke-miterlimit:10;stroke-opacity:1;stroke-dasharray:none"
           d="m 112.2,79.2 c 0,18.225397 -14.774603,33 -33,33 -18.225397,0 -33,-14.774603 -33,-33 0,-18.225397 14.774603,-33 33,-33 18.225397,0 33,14.774603 33,33 z" /></g><g
         transform="matrix(0.06,0,0,-0.06,24,225)"
         id="g36"><path
           inkscape:connector-curvature="0"
           id="path38"
           style="fill:#000000;fill-opacity:1;fill-rule:evenodd;stroke:none"
           d="m 4591.9195,839.95918 c 0,18.2254 -14.7746,33 -33,33 -18.2254,0 -33,-14.7746 -33,-33 0,-18.2254 14.7746,-33.00001 33,-33.00001 18.2254,0 33,14.77461 33,33.00001 z" /></g><g
         transform="matrix(0.06,0,0,-0.06,278.38317,179.35445)"
         id="g40"><path
           inkscape:connector-curvature="0"
           id="path42"
           style="fill:none;stroke:#000000;stroke-width:36;stroke-linecap:butt;stroke-linejoin:miter;stroke-miterlimit:10;stroke-opacity:1;stroke-dasharray:none"
           d="m 352.2,79.2 c 0,18.225397 -14.7746,33 -33,33 -18.2254,0 -33,-14.774603 -33,-33 0,-18.225397 14.7746,-33 33,-33 18.2254,0 33,14.774603 33,33 z" /></g><g
         transform="matrix(0.06,0,0,-0.06,24,225)"
         id="g44"><path
           inkscape:connector-curvature="0"
           id="path46"
           style="fill:#000000;fill-opacity:1;fill-rule:evenodd;stroke:none"
           d="m 2878.9197,634.15913 c -18.8882,0 -34.2,-15.31186 -34.2,-34.2 0,-18.88815 15.3118,-34.20001 34.2,-34.20001 18.8881,0 34.2,15.31186 34.2,34.20001 0,18.88814 -15.3119,34.2 -34.2,34.2 z" /></g><g
         transform="matrix(0,-0.06000001,-0.05999999,0,275.93517,203.82768)"
         id="g48"><path
           inkscape:connector-curvature="0"
           id="path50"
           style="fill:none;stroke:#000000;stroke-width:32.40000153;stroke-linecap:butt;stroke-linejoin:miter;stroke-miterlimit:10;stroke-opacity:1;stroke-dasharray:none"
           d="m 281.287,1320 c 0,18.8881 -15.31186,34.2 -34.2,34.2 -18.88814,0 -34.2,-15.3119 -34.2,-34.2 0,-18.8881 15.31186,-34.2 34.2,-34.2 18.88814,0 34.2,15.3119 34.2,34.2 z" /></g><g
         transform="matrix(0.06,0,0,-0.06,24,225)"
         id="g52"><g
           transform="matrix(0,1.0000002,-0.99999988,0,4198.9195,352.87207)"
           id="g54"><path
             inkscape:connector-curvature="0"
             id="path56"
             style="fill:#000000;fill-opacity:1;fill-rule:nonzero;stroke:none"
             d="m 212.887,1285.8 68.4,0 0,68.4 -68.4,0 0,-68.4 z" /></g></g><g
         transform="matrix(0,-0.06000001,-0.05999999,0,275.93517,203.82768)"
         id="g58"><path
           inkscape:connector-curvature="0"
           id="path60"
           style="fill:none;stroke:#000000;stroke-width:32.40000153;stroke-linecap:butt;stroke-linejoin:miter;stroke-miterlimit:10;stroke-opacity:1;stroke-dasharray:none"
           d="m 212.887,1285.8 68.4,0 0,68.4 -68.4,0 0,-68.4 z" /></g><g
         transform="matrix(0.06,0,0,-0.06,24,225)"
         id="g62"><path
           inkscape:connector-curvature="0"
           id="path64"
           style="fill:#000000;fill-opacity:1;fill-rule:evenodd;stroke:none"
           d="m 2878.9197,754.15916 c -18.8882,0 -34.2,-15.31187 -34.2,-34.20001 0,-18.88814 15.3118,-34.20001 34.2,-34.20001 18.8881,0 34.2,15.31187 34.2,34.20001 0,18.88814 -15.3119,34.20001 -34.2,34.20001 z" /></g><g
         transform="matrix(0,-0.06000001,-0.05999999,0,275.93517,203.82768)"
         id="g66"><path
           inkscape:connector-curvature="0"
           id="path68"
           style="fill:none;stroke:#000000;stroke-width:32.40000153;stroke-linecap:butt;stroke-linejoin:miter;stroke-miterlimit:10;stroke-opacity:1;stroke-dasharray:none"
           d="m 401.287,1320 c 0,18.8881 -15.31186,34.2 -34.2,34.2 -18.88814,0 -34.2,-15.3119 -34.2,-34.2 0,-18.8881 15.31186,-34.2 34.2,-34.2 18.88814,0 34.2,15.3119 34.2,34.2 z" /></g><g
         transform="matrix(0.06,0,0,-0.06,24,225)"
         id="g70"><path
           inkscape:connector-curvature="0"
           id="path72"
           style="fill:#000000;fill-opacity:1;fill-rule:evenodd;stroke:none"
           d="m 2878.9197,874.15918 c -18.8882,0 -34.2,-15.31186 -34.2,-34.2 0,-18.88814 15.3118,-34.20001 34.2,-34.20001 18.8881,0 34.2,15.31187 34.2,34.20001 0,18.88814 -15.3119,34.2 -34.2,34.2 z" /></g><g
         transform="matrix(0,-0.06000001,-0.05999999,0,275.93517,203.82768)"
         id="g74"><path
           inkscape:connector-curvature="0"
           id="path76"
           style="fill:none;stroke:#000000;stroke-width:32.40000153;stroke-linecap:butt;stroke-linejoin:miter;stroke-miterlimit:10;stroke-opacity:1;stroke-dasharray:none"
           d="m 521.287,1320 c 0,18.8881 -15.31186,34.2 -34.2,34.2 -18.88814,0 -34.2,-15.3119 -34.2,-34.2 0,-18.8881 15.31186,-34.2 34.2,-34.2 18.88814,0 34.2,15.3119 34.2,34.2 z" /></g><g
         transform="matrix(0.06,0,0,-0.06,24,225)"
         id="g78"><path
           inkscape:connector-curvature="0"
           id="path80"
           style="fill:#000000;fill-opacity:1;fill-rule:evenodd;stroke:none"
           d="m 2878.9197,994.15921 c -18.8882,0 -34.2,-15.31187 -34.2,-34.20001 0,-18.88814 15.3118,-34.20001 34.2,-34.20001 18.8881,0 34.2,15.31187 34.2,34.20001 0,18.88814 -15.3119,34.20001 -34.2,34.20001 z" /></g><g
         transform="matrix(0,-0.06000001,-0.05999999,0,275.93517,203.82768)"
         id="g82"><path
           inkscape:connector-curvature="0"
           id="path84"
           style="fill:none;stroke:#000000;stroke-width:32.40000153;stroke-linecap:butt;stroke-linejoin:miter;stroke-miterlimit:10;stroke-opacity:1;stroke-dasharray:none"
           d="m 641.287,1320 c 0,18.8881 -15.31186,34.2 -34.2,34.2 -18.88814,0 -34.2,-15.3119 -34.2,-34.2 0,-18.8881 15.31186,-34.2 34.2,-34.2 18.88814,0 34.2,15.3119 34.2,34.2 z" /></g><g
         transform="matrix(0.06,0,0,-0.06,24,225)"
         id="g86"><path
           inkscape:connector-curvature="0"
           id="path88"
           style="fill:#000000;fill-opacity:1;fill-rule:evenodd;stroke:none"
           d="m 2878.9197,1114.1592 c -18.8882,0 -34.2,-15.3118 -34.2,-34.2 0,-18.8881 15.3118,-34.2 34.2,-34.2 18.8881,0 34.2,15.3119 34.2,34.2 0,18.8882 -15.3119,34.2 -34.2,34.2 z" /></g><g
         transform="matrix(0,-0.06000001,-0.05999999,0,275.93517,203.82768)"
         id="g90"><path
           inkscape:connector-curvature="0"
           id="path92"
           style="fill:none;stroke:#000000;stroke-width:32.40000153;stroke-linecap:butt;stroke-linejoin:miter;stroke-miterlimit:10;stroke-opacity:1;stroke-dasharray:none"
           d="m 761.287,1320 c 0,18.8881 -15.31186,34.2 -34.2,34.2 -18.88814,0 -34.2,-15.3119 -34.2,-34.2 0,-18.8881 15.31186,-34.2 34.2,-34.2 18.88814,0 34.2,15.3119 34.2,34.2 z" /></g><g
         transform="matrix(0.06,0,0,-0.06,24,225)"
         id="g94"><path
           inkscape:connector-curvature="0"
           id="path96"
           style="fill:#000000;fill-opacity:1;fill-rule:evenodd;stroke:none"
           d="m 2878.9197,1234.1593 c -18.8882,0 -34.2,-15.3119 -34.2,-34.2 0,-18.8882 15.3118,-34.2001 34.2,-34.2001 18.8881,0 34.2,15.3119 34.2,34.2001 0,18.8881 -15.3119,34.2 -34.2,34.2 z" /></g><g
         transform="matrix(0,-0.06000001,-0.05999999,0,275.93517,203.82768)"
         id="g98"><path
           inkscape:connector-curvature="0"
           id="path100"
           style="fill:none;stroke:#000000;stroke-width:32.40000153;stroke-linecap:butt;stroke-linejoin:miter;stroke-miterlimit:10;stroke-opacity:1;stroke-dasharray:none"
           d="m 881.287,1320 c 0,18.8881 -15.31186,34.2 -34.2,34.2 -18.88814,0 -34.2,-15.3119 -34.2,-34.2 0,-18.8881 15.31186,-34.2 34.2,-34.2 18.88814,0 34.2,15.3119 34.2,34.2 z" /></g><g
         transform="matrix(0.06,0,0,-0.06,24,225)"
         id="g102"><path
           inkscape:connector-curvature="0"
           id="path104"
           style="fill:#000000;fill-opacity:1;fill-rule:evenodd;stroke:none"
           d="m 2878.9197,1354.1593 c -18.8882,0 -34.2,-15.3119 -34.2,-34.2 0,-18.8882 15.3118,-34.2 34.2,-34.2 18.8881,0 34.2,15.3118 34.2,34.2 0,18.8881 -15.3119,34.2 -34.2,34.2 z" /></g><g
         transform="matrix(0,-0.06000001,-0.05999999,0,275.93517,203.82768)"
         id="g106"><path
           inkscape:connector-curvature="0"
           id="path108"
           style="fill:none;stroke:#000000;stroke-width:32.40000153;stroke-linecap:butt;stroke-linejoin:miter;stroke-miterlimit:10;stroke-opacity:1;stroke-dasharray:none"
           d="m 1001.287,1320 c 0,18.8881 -15.31186,34.2 -34.2,34.2 -18.88814,0 -34.2,-15.3119 -34.2,-34.2 0,-18.8881 15.31186,-34.2 34.2,-34.2 18.88814,0 34.2,15.3119 34.2,34.2 z" /></g><g
         transform="matrix(0.06,0,0,-0.06,24,225)"
         id="g110"><path
           inkscape:connector-curvature="0"
           id="path112"
           style="fill:#000000;fill-opacity:1;fill-rule:evenodd;stroke:none"
           d="m 2878.9197,1474.1623 c -18.8882,0 -34.2,-15.3119 -34.2,-34.2 0,-18.8881 15.3118,-34.2 34.2,-34.2 18.8881,0 34.2,15.3119 34.2,34.2 0,18.8881 -15.3119,34.2 -34.2,34.2 z" /></g><g
         transform="matrix(0,-0.06000001,-0.05999999,0,275.93517,203.82768)"
         id="g114"><path
           inkscape:connector-curvature="0"
           id="path116"
           style="fill:none;stroke:#000000;stroke-width:32.40000153;stroke-linecap:butt;stroke-linejoin:miter;stroke-miterlimit:10;stroke-opacity:1;stroke-dasharray:none"
           d="m 1121.29,1320 c 0,18.8881 -15.3119,34.2 -34.2,34.2 -18.8881,0 -34.2,-15.3119 -34.2,-34.2 0,-18.8881 15.3119,-34.2 34.2,-34.2 18.8881,0 34.2,15.3119 34.2,34.2 z" /></g><g
         transform="matrix(0.06,0,0,-0.06,24,225)"
         id="g118"><g
           transform="matrix(-0.99999988,0,0,-1.0000002,562.91593,1763.9604)"
           id="g120"><path
             inkscape:connector-curvature="0"
             id="path122"
             style="fill:#000000;fill-opacity:1;fill-rule:nonzero;stroke:none"
             d="m 49.2,49.2 69.6,0 0,69.6 -69.6,0 0,-69.6 z" /></g></g><g
         transform="matrix(-0.05999999,0,0,0.06000001,57.774956,119.16238)"
         id="g124"><path
           inkscape:connector-curvature="0"
           id="path126"
           style="fill:none;stroke:#000000;stroke-width:36;stroke-linecap:butt;stroke-linejoin:miter;stroke-miterlimit:10;stroke-opacity:1;stroke-dasharray:none"
           d="m 49.2,49.2 69.6,0 0,69.6 -69.6,0 0,-69.6 z" /></g><g
         transform="matrix(0.06,0,0,-0.06,24,225)"
         id="g128"><path
           inkscape:connector-curvature="0"
           id="path130"
           style="fill:#000000;fill-opacity:1;fill-rule:evenodd;stroke:none"
           d="m 444.11595,1679.9604 c 0,-19.2196 15.58049,-34.8001 34.79999,-34.8001 19.21951,0 34.8,15.5805 34.8,34.8001 0,19.2195 -15.58049,34.8 -34.8,34.8 -19.2195,0 -34.79999,-15.5805 -34.79999,-34.8 z" /></g><g
         transform="matrix(-0.05999999,0,0,0.06000001,57.774956,119.16238)"
         id="g132"><path
           inkscape:connector-curvature="0"
           id="path134"
           style="fill:none;stroke:#000000;stroke-width:36;stroke-linecap:butt;stroke-linejoin:miter;stroke-miterlimit:10;stroke-opacity:1;stroke-dasharray:none"
           d="m 118.8,84 c 0,19.21951 -15.58049,34.8 -34.8,34.8 -19.219509,0 -34.8,-15.58049 -34.8,-34.8 0,-19.219509 15.580491,-34.8 34.8,-34.8 19.21951,0 34.8,15.580491 34.8,34.8 z" /></g><g
         transform="matrix(0.06,0,0,-0.06,24,225)"
         id="g136"><path
           inkscape:connector-curvature="0"
           id="path138"
           style="fill:#000000;fill-opacity:1;fill-rule:evenodd;stroke:none"
           d="m 444.11595,1559.9603 c 0,-19.2195 15.58049,-34.8 34.79999,-34.8 19.21951,0 34.8,15.5805 34.8,34.8 0,19.2195 -15.58049,34.8 -34.8,34.8 -19.2195,0 -34.79999,-15.5805 -34.79999,-34.8 z" /></g><g
         transform="matrix(-0.05999999,0,0,0.06000001,57.774956,119.16238)"
         id="g140"><path
           inkscape:connector-curvature="0"
           id="path142"
           style="fill:none;stroke:#000000;stroke-width:36;stroke-linecap:butt;stroke-linejoin:miter;stroke-miterlimit:10;stroke-opacity:1;stroke-dasharray:none"
           d="m 118.8,204 c 0,19.21951 -15.58049,34.8 -34.8,34.8 -19.219509,0 -34.8,-15.58049 -34.8,-34.8 0,-19.21951 15.580491,-34.8 34.8,-34.8 19.21951,0 34.8,15.58049 34.8,34.8 z" /></g><g
         transform="matrix(0.06,0,0,-0.06,24,225)"
         id="g144"><path
           inkscape:connector-curvature="0"
           id="path146"
           style="fill:#000000;fill-opacity:1;fill-rule:evenodd;stroke:none"
           d="m 444.11595,1439.9603 c 0,-19.2195 15.58049,-34.8 34.79999,-34.8 19.21951,0 34.8,15.5805 34.8,34.8 0,19.2195 -15.58049,34.8 -34.8,34.8 -19.2195,0 -34.79999,-15.5805 -34.79999,-34.8 z" /></g><g
         transform="matrix(-0.05999999,0,0,0.06000001,57.774956,119.16238)"
         id="g148"><path
           inkscape:connector-curvature="0"
           id="path150"
           style="fill:none;stroke:#000000;stroke-width:36;stroke-linecap:butt;stroke-linejoin:miter;stroke-miterlimit:10;stroke-opacity:1;stroke-dasharray:none"
           d="m 118.8,324 c 0,19.21951 -15.58049,34.8 -34.8,34.8 -19.219509,0 -34.8,-15.58049 -34.8,-34.8 0,-19.21951 15.580491,-34.8 34.8,-34.8 19.21951,0 34.8,15.58049 34.8,34.8 z" /></g><g
         transform="matrix(0.06,0,0,-0.06,24,225)"
         id="g152"><g
           transform="matrix(0,-1.0000002,0.99999988,0,2314.9197,803.95917)"
           id="g154"><path
             inkscape:connector-curvature="0"
             id="path156"
             style="fill:#000000;fill-opacity:1;fill-rule:nonzero;stroke:none"
             d="m 49.2,49.2 69.6,0 0,69.6 -69.6,0 0,-69.6 z" /></g></g><g
         transform="matrix(0,0.06000001,0.05999999,0,162.89518,176.76245)"
         id="g158"><path
           inkscape:connector-curvature="0"
           id="path160"
           style="fill:none;stroke:#000000;stroke-width:36;stroke-linecap:butt;stroke-linejoin:miter;stroke-miterlimit:10;stroke-opacity:1;stroke-dasharray:none"
           d="m 49.2,49.2 69.6,0 0,69.6 -69.6,0 0,-69.6 z" /></g><g
         transform="matrix(0.06,0,0,-0.06,24,225)"
         id="g162"><path
           inkscape:connector-curvature="0"
           id="path164"
           style="fill:#000000;fill-opacity:1;fill-rule:evenodd;stroke:none"
           d="m 2398.9197,685.15914 c 19.2195,0 34.8,15.5805 34.8,34.80001 0,19.21952 -15.5805,34.80001 -34.8,34.80001 -19.2195,0 -34.8,-15.58049 -34.8,-34.80001 0,-19.21951 15.5805,-34.80001 34.8,-34.80001 z" /></g><g
         transform="matrix(0,0.06000001,0.05999999,0,162.89518,176.76245)"
         id="g166"><path
           inkscape:connector-curvature="0"
           id="path168"
           style="fill:none;stroke:#000000;stroke-width:36;stroke-linecap:butt;stroke-linejoin:miter;stroke-miterlimit:10;stroke-opacity:1;stroke-dasharray:none"
           d="m 118.8,84 c 0,19.21951 -15.58049,34.8 -34.8,34.8 -19.219509,0 -34.8,-15.58049 -34.8,-34.8 0,-19.219509 15.580491,-34.8 34.8,-34.8 19.21951,0 34.8,15.580491 34.8,34.8 z" /></g><g
         transform="matrix(0.06,0,0,-0.06,24,225)"
         id="g170"><path
           inkscape:connector-curvature="0"
           id="path172"
           style="fill:#000000;fill-opacity:1;fill-rule:evenodd;stroke:none"
           d="m 2518.9197,685.15914 c 19.2195,0 34.8,15.5805 34.8,34.80001 0,19.21952 -15.5805,34.80001 -34.8,34.80001 -19.2195,0 -34.8,-15.58049 -34.8,-34.80001 0,-19.21951 15.5805,-34.80001 34.8,-34.80001 z" /></g><g
         transform="matrix(0,0.06000001,0.05999999,0,162.89518,176.76245)"
         id="g174"><path
           inkscape:connector-curvature="0"
           id="path176"
           style="fill:none;stroke:#000000;stroke-width:36;stroke-linecap:butt;stroke-linejoin:miter;stroke-miterlimit:10;stroke-opacity:1;stroke-dasharray:none"
           d="m 118.8,204 c 0,19.21951 -15.58049,34.8 -34.8,34.8 -19.219509,0 -34.8,-15.58049 -34.8,-34.8 0,-19.21951 15.580491,-34.8 34.8,-34.8 19.21951,0 34.8,15.58049 34.8,34.8 z" /></g><g
         transform="matrix(0.06,0,0,-0.06,24,225)"
         id="g178"><path
           inkscape:connector-curvature="0"
           id="path180"
           style="fill:#000000;fill-opacity:1;fill-rule:evenodd;stroke:none"
           d="m 3871.9195,1679.9604 c 0,18.2254 -14.7746,33 -32.9999,33 -18.2254,0 -33,-14.7746 -33,-33 0,-18.2254 14.7746,-33.0001 33,-33.0001 18.2253,0 32.9999,14.7747 32.9999,33.0001 z" /></g><g
         transform="matrix(0.06,0,0,-0.06,249.58318,128.95438)"
         id="g182"><path
           inkscape:connector-curvature="0"
           id="path184"
           style="fill:none;stroke:#000000;stroke-width:36;stroke-linecap:butt;stroke-linejoin:miter;stroke-miterlimit:10;stroke-opacity:1;stroke-dasharray:none"
           d="m 112.2,79.2 c 0,18.225397 -14.774603,33 -33,33 -18.225397,0 -33,-14.774603 -33,-33 0,-18.225397 14.774603,-33 33,-33 18.225397,0 33,14.774603 33,33 z" /></g><g
         transform="matrix(0.06,0,0,-0.06,24,225)"
         id="g186"><path
           inkscape:connector-curvature="0"
           id="path188"
           style="fill:#000000;fill-opacity:1;fill-rule:evenodd;stroke:none"
           d="m 4351.9195,1679.9604 c 0,18.2254 -14.7746,33 -33,33 -18.2254,0 -33,-14.7746 -33,-33 0,-18.2254 14.7746,-33.0001 33,-33.0001 18.2254,0 33,14.7747 33,33.0001 z" /></g><g
         transform="matrix(0.06,0,0,-0.06,249.58318,128.95438)"
         id="g190"><path
           inkscape:connector-curvature="0"
           id="path192"
           style="fill:none;stroke:#000000;stroke-width:36;stroke-linecap:butt;stroke-linejoin:miter;stroke-miterlimit:10;stroke-opacity:1;stroke-dasharray:none"
           d="m 592.2,79.2 c 0,18.225397 -14.7746,33 -33,33 -18.2254,0 -33,-14.774603 -33,-33 0,-18.225397 14.7746,-33 33,-33 18.2254,0 33,14.774603 33,33 z" /></g><g
         transform="matrix(0.06,0,0,-0.06,24,225)"
         id="g194"><path
           inkscape:connector-curvature="0"
           id="path196"
           style="fill:#000000;fill-opacity:1;fill-rule:evenodd;stroke:none"
           d="m 4111.9195,2639.9606 c 0,18.2254 -14.7746,33 -33,33 -18.2254,0 -33,-14.7746 -33,-33 0,-18.2254 14.7746,-33 33,-33 18.2254,0 33,14.7746 33,33 z" /></g><g
         transform="matrix(0.06,0,0,-0.06,263.98317,71.35437)"
         id="g198"><path
           inkscape:connector-curvature="0"
           id="path200"
           style="fill:none;stroke:#000000;stroke-width:36;stroke-linecap:butt;stroke-linejoin:miter;stroke-miterlimit:10;stroke-opacity:1;stroke-dasharray:none"
           d="m 112.2,79.2 c 0,18.225397 -14.774603,33 -33,33 -18.225397,0 -33,-14.774603 -33,-33 0,-18.225397 14.774603,-33 33,-33 18.225397,0 33,14.774603 33,33 z" /></g><g
         transform="matrix(0.06,0,0,-0.06,24,225)"
         id="g202"><path
           inkscape:connector-curvature="0"
           id="path204"
           style="fill:#000000;fill-opacity:1;fill-rule:evenodd;stroke:none"
           d="m 4111.9195,3119.9607 c 0,18.2253 -14.7746,33 -33,33 -18.2254,0 -33,-14.7747 -33,-33 0,-18.2254 14.7746,-33 33,-33 18.2254,0 33,14.7746 33,33 z" /></g><g
         transform="matrix(0.06,0,0,-0.06,263.98317,71.35437)"
         id="g206"><path
           inkscape:connector-curvature="0"
           id="path208"
           style="fill:none;stroke:#000000;stroke-width:36;stroke-linecap:butt;stroke-linejoin:miter;stroke-miterlimit:10;stroke-opacity:1;stroke-dasharray:none"
           d="m 112.2,559.2 c 0,18.2254 -14.774603,33 -33,33 -18.225397,0 -33,-14.7746 -33,-33 0,-18.2254 14.774603,-33 33,-33 18.225397,0 33,14.7746 33,33 z" /></g><g
         transform="matrix(0.06,0,0,-0.06,24,225)"
         id="g210"><path
           inkscape:connector-curvature="0"
           id="path212"
           style="fill:#000000;fill-opacity:1;fill-rule:evenodd;stroke:none"
           d="m 2311.9197,2159.9605 c 0,18.2253 -14.7746,33 -33,33 -18.2254,0 -33,-14.7747 -33,-33 0,-18.2254 14.7746,-33.0001 33,-33.0001 18.2254,0 33,14.7747 33,33.0001 z" /></g><g
         transform="matrix(0.06,0,0,-0.06,155.98318,100.15438)"
         id="g214"><path
           inkscape:connector-curvature="0"
           id="path216"
           style="fill:none;stroke:#000000;stroke-width:36;stroke-linecap:butt;stroke-linejoin:miter;stroke-miterlimit:10;stroke-opacity:1;stroke-dasharray:none"
           d="m 112.2,79.2 c 0,18.225397 -14.774603,33 -33,33 -18.225397,0 -33,-14.774603 -33,-33 0,-18.225397 14.774603,-33 33,-33 18.225397,0 33,14.774603 33,33 z" /></g><g
         transform="matrix(0.06,0,0,-0.06,24,225)"
         id="g218"><path
           inkscape:connector-curvature="0"
           id="path220"
           style="fill:#000000;fill-opacity:1;fill-rule:evenodd;stroke:none"
           d="m 2311.9197,2399.9605 c 0,18.2254 -14.7746,33 -33,33 -18.2254,0 -33,-14.7746 -33,-33 0,-18.2254 14.7746,-33 33,-33 18.2254,0 33,14.7746 33,33 z" /></g><g
         transform="matrix(0.06,0,0,-0.06,155.98318,100.15438)"
         id="g222"><path
           inkscape:connector-curvature="0"
           id="path224"
           style="fill:none;stroke:#000000;stroke-width:36;stroke-linecap:butt;stroke-linejoin:miter;stroke-miterlimit:10;stroke-opacity:1;stroke-dasharray:none"
           d="m 112.2,319.2 c 0,18.2254 -14.774603,33 -33,33 -18.225397,0 -33,-14.7746 -33,-33 0,-18.2254 14.774603,-33 33,-33 18.225397,0 33,14.7746 33,33 z" /></g><g
         transform="matrix(0.06,0,0,-0.06,24,225)"
         id="g226"><path
           inkscape:connector-curvature="0"
           id="path228"
           style="fill:#000000;fill-opacity:1;fill-rule:evenodd;stroke:none"
           d="m 4538.1311,239.95905 c 0,54.79362 -44.419,99.21262 -99.2126,99.21262 -54.7936,0 -99.2126,-44.419 -99.2126,-99.21262 0,-54.79362 44.419,-99.21262 99.2126,-99.21262 54.7936,0 99.2126,44.419 99.2126,99.21262 z" /></g><g
         transform="matrix(0.06,0,0,-0.06,282.78237,218.1552)"
         id="g230"><path
           inkscape:connector-curvature="0"
           id="path232"
           style="fill:none;stroke:#000000;stroke-width:12;stroke-linecap:butt;stroke-linejoin:miter;stroke-miterlimit:10;stroke-opacity:1;stroke-dasharray:none"
           d="m 225.0916,125.879 c 0,54.7936 -44.419,99.2126 -99.2126,99.2126 -54.793606,0 -99.2126,-44.419 -99.2126,-99.2126 0,-54.793606 44.418994,-99.2126 99.2126,-99.2126 54.7936,0 99.2126,44.418994 99.2126,99.2126 z" /></g><g
         transform="matrix(0.06,0,0,-0.06,24,225)"
         id="g234"><path
           inkscape:connector-curvature="0"
           id="path236"
           style="fill:#000000;fill-opacity:1;fill-rule:evenodd;stroke:none"
           d="m 338.12856,239.95905 c 0,54.79362 -44.41899,99.21262 -99.21259,99.21262 -54.7936,0 -99.21259,-44.419 -99.21259,-99.21262 0,-54.79362 44.41899,-99.21262 99.21259,-99.21262 54.7936,0 99.21259,44.419 99.21259,99.21262 z" /></g><g
         transform="matrix(0.06,0,0,-0.06,30.782219,218.1552)"
         id="g238"><path
           inkscape:connector-curvature="0"
           id="path240"
           style="fill:none;stroke:#000000;stroke-width:12;stroke-linecap:butt;stroke-linejoin:miter;stroke-miterlimit:10;stroke-opacity:1;stroke-dasharray:none"
           d="m 225.0916,125.879 c 0,54.7936 -44.419,99.2126 -99.2126,99.2126 -54.793606,0 -99.2126,-44.419 -99.2126,-99.2126 0,-54.793606 44.418994,-99.2126 99.2126,-99.2126 54.7936,0 99.2126,44.418994 99.2126,99.2126 z" /></g><g
         transform="matrix(0.06,0,0,-0.06,24,225)"
         id="g242"><path
           inkscape:connector-curvature="0"
           id="path244"
           style="fill:#000000;fill-opacity:1;fill-rule:evenodd;stroke:none"
           d="m 2038.9191,804.96017 c 19.3299,0 35,15.67004 35,35.00001 0,19.32997 -15.6701,35 -35,35 -19.33,0 -35,-15.67003 -35,-35 0,-19.32997 15.67,-35.00001 35,-35.00001 z" /></g><g
         transform="matrix(0,0.06000001,0.05999999,0,72.434952,137.70238)"
         id="g246"><path
           inkscape:connector-curvature="0"
           id="path248"
           style="fill:none;stroke:#000000;stroke-width:32.40000153;stroke-linecap:butt;stroke-linejoin:miter;stroke-miterlimit:10;stroke-opacity:1;stroke-dasharray:none"
           d="m 650,1231.67 c 0,19.33 -15.67003,35 -35,35 -19.32997,0 -35,-15.67 -35,-35 0,-19.33 15.67003,-35 35,-35 19.32997,0 35,15.67 35,35 z" /></g><g
         transform="matrix(0.06,0,0,-0.06,24,225)"
         id="g250"><path
           inkscape:connector-curvature="0"
           id="path252"
           style="fill:#000000;fill-opacity:1;fill-rule:evenodd;stroke:none"
           d="m 2038.9191,684.96014 c 19.3299,0 35,15.67004 35,35.00001 0,19.32997 -15.6701,35.00001 -35,35.00001 -19.33,0 -35,-15.67004 -35,-35.00001 0,-19.32997 15.67,-35.00001 35,-35.00001 z" /></g><g
         transform="matrix(0,0.06000001,0.05999999,0,72.434952,137.70238)"
         id="g254"><path
           inkscape:connector-curvature="0"
           id="path256"
           style="fill:none;stroke:#000000;stroke-width:32.40000153;stroke-linecap:butt;stroke-linejoin:miter;stroke-miterlimit:10;stroke-opacity:1;stroke-dasharray:none"
           d="m 770,1231.67 c 0,19.33 -15.67003,35 -35,35 -19.32997,0 -35,-15.67 -35,-35 0,-19.33 15.67003,-35 35,-35 19.32997,0 35,15.67 35,35 z" /></g><g
         transform="matrix(0.06,0,0,-0.06,24,225)"
         id="g274"><path
           inkscape:connector-curvature="0"
           id="path276"
           style="fill:#000000;fill-opacity:1;fill-rule:evenodd;stroke:none"
           d="m 958.91619,924.96019 c 19.32996,0 34.99999,15.67004 34.99999,35.00001 0,19.32997 -15.67003,35.00001 -34.99999,35.00001 -19.32997,0 -35,-15.67004 -35,-35.00001 0,-19.32997 15.67003,-35.00001 35,-35.00001 z" /></g><g
         transform="matrix(0,0.06000001,0.05999999,0,72.434952,137.70238)"
         id="g278"><path
           inkscape:connector-curvature="0"
           id="path280"
           style="fill:none;stroke:#000000;stroke-width:32.40000153;stroke-linecap:butt;stroke-linejoin:miter;stroke-miterlimit:10;stroke-opacity:1;stroke-dasharray:none"
           d="m 530,151.667 c 0,19.32997 -15.67003,35 -35,35 -19.32997,0 -35,-15.67003 -35,-35 0,-19.32997 15.67003,-35 35,-35 19.32997,0 35,15.67003 35,35 z" /></g><g
         transform="matrix(0.06,0,0,-0.06,24,225)"
         id="g282"><path
           inkscape:connector-curvature="0"
           id="path284"
           style="fill:#000000;fill-opacity:1;fill-rule:evenodd;stroke:none"
           d="m 958.91619,564.96012 c 19.32996,0 34.99999,15.67004 34.99999,35.00001 0,19.32997 -15.67003,35 -34.99999,35 -19.32997,0 -35,-15.67003 -35,-35 0,-19.32997 15.67003,-35.00001 35,-35.00001 z" /></g><g
         transform="matrix(0,0.06000001,0.05999999,0,72.434952,137.70238)"
         id="g286"><path
           inkscape:connector-curvature="0"
           id="path288"
           style="fill:none;stroke:#000000;stroke-width:32.40000153;stroke-linecap:butt;stroke-linejoin:miter;stroke-miterlimit:10;stroke-opacity:1;stroke-dasharray:none"
           d="m 890,151.667 c 0,19.32997 -15.67003,35 -35,35 -19.32997,0 -35,-15.67003 -35,-35 0,-19.32997 15.67003,-35 35,-35 19.32997,0 35,15.67003 35,35 z" /></g><g
         transform="matrix(0.06,0,0,-0.06,24,225)"
         id="g290"><path
           inkscape:connector-curvature="0"
           id="path292"
           style="fill:#000000;fill-opacity:1;fill-rule:evenodd;stroke:none"
           d="m 958.91619,804.96017 c 19.32996,0 34.99999,15.67004 34.99999,35.00001 0,19.32997 -15.67003,35 -34.99999,35 -19.32997,0 -35,-15.67003 -35,-35 0,-19.32997 15.67003,-35.00001 35,-35.00001 z" /></g><g
         transform="matrix(0,0.06000001,0.05999999,0,72.434952,137.70238)"
         id="g294"><path
           inkscape:connector-curvature="0"
           id="path296"
           style="fill:none;stroke:#000000;stroke-width:32.40000153;stroke-linecap:butt;stroke-linejoin:miter;stroke-miterlimit:10;stroke-opacity:1;stroke-dasharray:none"
           d="m 650,151.667 c 0,19.32997 -15.67003,35 -35,35 -19.32997,0 -35,-15.67003 -35,-35 0,-19.32997 15.67003,-35 35,-35 19.32997,0 35,15.67003 35,35 z" /></g><g
         transform="matrix(0.06,0,0,-0.06,24,225)"
         id="g298"><path
           inkscape:connector-curvature="0"
           id="path300"
           style="fill:#000000;fill-opacity:1;fill-rule:evenodd;stroke:none"
           d="m 958.91619,684.96014 c 19.32996,0 34.99999,15.67004 34.99999,35.00001 0,19.32997 -15.67003,35.00001 -34.99999,35.00001 -19.32997,0 -35,-15.67004 -35,-35.00001 0,-19.32997 15.67003,-35.00001 35,-35.00001 z" /></g><g
         transform="matrix(0,0.06000001,0.05999999,0,72.434952,137.70238)"
         id="g302"><path
           inkscape:connector-curvature="0"
           id="path304"
           style="fill:none;stroke:#000000;stroke-width:32.40000153;stroke-linecap:butt;stroke-linejoin:miter;stroke-miterlimit:10;stroke-opacity:1;stroke-dasharray:none"
           d="m 770,151.667 c 0,19.32997 -15.67003,35 -35,35 -19.32997,0 -35,-15.67003 -35,-35 0,-19.32997 15.67003,-35 35,-35 19.32997,0 35,15.67003 35,35 z" /></g><g
         transform="matrix(0.06,0,0,-0.06,24,225)"
         id="g306"><path
           inkscape:connector-curvature="0"
           id="path308"
           style="fill:#000000;fill-opacity:1;fill-rule:evenodd;stroke:none"
           d="m 452.51595,931.1602 c 15.9058,0 28.79999,12.8942 28.79999,28.8 0,15.90581 -12.89419,28.80001 -28.79999,28.80001 -15.9058,0 -28.8,-12.8942 -28.8,-28.80001 0,-15.9058 12.8942,-28.8 28.8,-28.8 z" /></g><g
         transform="matrix(0,0.06000001,0.05999999,0,7.9509618,149.18638)"
         id="g310"><path
           inkscape:connector-curvature="0"
           id="path312"
           style="fill:none;stroke:#000000;stroke-width:36;stroke-linecap:butt;stroke-linejoin:miter;stroke-miterlimit:10;stroke-opacity:1;stroke-dasharray:none"
           d="m 332.4,720 c 0,15.9058 -12.8942,28.8 -28.8,28.8 -15.9058,0 -28.8,-12.8942 -28.8,-28.8 0,-15.9058 12.8942,-28.8 28.8,-28.8 15.9058,0 28.8,12.8942 28.8,28.8 z" /></g><g
         transform="matrix(0.06,0,0,-0.06,24,225)"
         id="g314"><path
           inkscape:connector-curvature="0"
           id="path316"
           style="fill:#000000;fill-opacity:1;fill-rule:evenodd;stroke:none"
           d="m 452.51595,813.56017 c 15.9058,0 28.79999,12.8942 28.79999,28.80001 0,15.9058 -12.89419,28.8 -28.79999,28.8 -15.9058,0 -28.8,-12.8942 -28.8,-28.8 0,-15.90581 12.8942,-28.80001 28.8,-28.80001 z" /></g><g
         transform="matrix(0,0.06000001,0.05999999,0,7.9509618,149.18638)"
         id="g318"><path
           inkscape:connector-curvature="0"
           id="path320"
           style="fill:none;stroke:#000000;stroke-width:36;stroke-linecap:butt;stroke-linejoin:miter;stroke-miterlimit:10;stroke-opacity:1;stroke-dasharray:none"
           d="m 450,720 c 0,15.9058 -12.8942,28.8 -28.8,28.8 -15.9058,0 -28.8,-12.8942 -28.8,-28.8 0,-15.9058 12.8942,-28.8 28.8,-28.8 15.9058,0 28.8,12.8942 28.8,28.8 z" /></g><g
         transform="matrix(0.06,0,0,-0.06,24,225)"
         id="g322"><path
           inkscape:connector-curvature="0"
           id="path324"
           style="fill:#000000;fill-opacity:1;fill-rule:evenodd;stroke:none"
           d="m 358.91596,813.56017 c 15.9058,0 28.79999,12.8942 28.79999,28.80001 0,15.9058 -12.89419,28.8 -28.79999,28.8 -15.9058,0 -28.8,-12.8942 -28.8,-28.8 0,-15.90581 12.8942,-28.80001 28.8,-28.80001 z" /></g><g
         transform="matrix(0,0.06000001,0.05999999,0,7.9509618,149.18638)"
         id="g326"><path
           inkscape:connector-curvature="0"
           id="path328"
           style="fill:none;stroke:#000000;stroke-width:36;stroke-linecap:butt;stroke-linejoin:miter;stroke-miterlimit:10;stroke-opacity:1;stroke-dasharray:none"
           d="m 450,626.4 c 0,15.9058 -12.8942,28.8 -28.8,28.8 -15.9058,0 -28.8,-12.8942 -28.8,-28.8 0,-15.9058 12.8942,-28.8 28.8,-28.8 15.9058,0 28.8,12.8942 28.8,28.8 z" /></g><g
         transform="matrix(0.06,0,0,-0.06,24,225)"
         id="g330"><path
           inkscape:connector-curvature="0"
           id="path332"
           style="fill:#000000;fill-opacity:1;fill-rule:evenodd;stroke:none"
           d="m 358.91596,931.1602 c 15.9058,0 28.79999,12.8942 28.79999,28.8 0,15.90581 -12.89419,28.80001 -28.79999,28.80001 -15.9058,0 -28.8,-12.8942 -28.8,-28.80001 0,-15.9058 12.8942,-28.8 28.8,-28.8 z" /></g><g
         transform="matrix(0,0.06000001,0.05999999,0,7.9509618,149.18638)"
         id="g334"><path
           inkscape:connector-curvature="0"
           id="path336"
           style="fill:none;stroke:#000000;stroke-width:36;stroke-linecap:butt;stroke-linejoin:miter;stroke-miterlimit:10;stroke-opacity:1;stroke-dasharray:none"
           d="m 332.4,626.4 c 0,15.9058 -12.8942,28.8 -28.8,28.8 -15.9058,0 -28.8,-12.8942 -28.8,-28.8 0,-15.9058 12.8942,-28.8 28.8,-28.8 15.9058,0 28.8,12.8942 28.8,28.8 z" /></g><g
         transform="matrix(0.06,0,0,-0.06,24,225)"
         id="g338"><path
           inkscape:connector-curvature="0"
           id="path340"
           style="fill:#000000;fill-opacity:1;fill-rule:evenodd;stroke:none"
           d="m 230.51597,1121.9602 c 35.12531,0 63.6,28.4747 63.6,63.6001 0,35.1253 -28.47469,63.6 -63.6,63.6 -35.1253,0 -63.59999,-28.4747 -63.59999,-63.6 0,-35.1254 28.47469,-63.6001 63.59999,-63.6001 z" /></g><g
         transform="matrix(0,0.06000001,0.05999999,0,7.9509618,149.18638)"
         id="g342"><path
           inkscape:connector-curvature="0"
           id="path344"
           style="fill:none;stroke:#000000;stroke-width:36;stroke-linecap:butt;stroke-linejoin:miter;stroke-miterlimit:10;stroke-opacity:1;stroke-dasharray:none"
           d="m 141.6,498 c 0,35.12531 -28.47469,63.6 -63.6,63.6 -35.12531,0 -63.6,-28.47469 -63.6,-63.6 0,-35.12531 28.47469,-63.6 63.6,-63.6 35.12531,0 63.6,28.47469 63.6,63.6 z" /></g><g
         transform="matrix(0.06,0,0,-0.06,24,225)"
         id="g346"><path
           inkscape:connector-curvature="0"
           id="path348"
           style="fill:#000000;fill-opacity:1;fill-rule:evenodd;stroke:none"
           d="m 230.51597,553.16012 c 35.12531,0 63.6,28.47469 63.6,63.60001 0,35.12532 -28.47469,63.60001 -63.6,63.60001 -35.1253,0 -63.59999,-28.47469 -63.59999,-63.60001 0,-35.12532 28.47469,-63.60001 63.59999,-63.60001 z" /></g><g
         transform="matrix(0,0.06000001,0.05999999,0,7.9509618,149.18638)"
         id="g350"><path
           inkscape:connector-curvature="0"
           id="path352"
           style="fill:none;stroke:#000000;stroke-width:36;stroke-linecap:butt;stroke-linejoin:miter;stroke-miterlimit:10;stroke-opacity:1;stroke-dasharray:none"
           d="m 710.4,498 c 0,35.12531 -28.47469,63.6 -63.6,63.6 -35.12531,0 -63.6,-28.47469 -63.6,-63.6 0,-35.12531 28.47469,-63.6 63.6,-63.6 35.12531,0 63.6,28.47469 63.6,63.6 z" /></g><g
         transform="matrix(0.06,0,0,-0.06,24,225)"
         id="g354"><path
           inkscape:connector-curvature="0"
           id="path356"
           style="fill:#000000;fill-opacity:1;fill-rule:evenodd;stroke:none"
           d="m 338.12856,3119.9597 c 0,54.7936 -44.41899,99.2126 -99.21259,99.2126 -54.7936,0 -99.21259,-44.419 -99.21259,-99.2126 0,-54.7937 44.41899,-99.2127 99.21259,-99.2127 54.7936,0 99.21259,44.419 99.21259,99.2127 z" /></g><g
         transform="matrix(0.06,0,0,-0.06,30.782219,45.355164)"
         id="g358"><path
           inkscape:connector-curvature="0"
           id="path360"
           style="fill:none;stroke:#000000;stroke-width:12;stroke-linecap:butt;stroke-linejoin:miter;stroke-miterlimit:10;stroke-opacity:1;stroke-dasharray:none"
           d="m 225.0916,125.879 c 0,54.7936 -44.419,99.2126 -99.2126,99.2126 -54.793606,0 -99.2126,-44.419 -99.2126,-99.2126 0,-54.793606 44.418994,-99.2126 99.2126,-99.2126 54.7936,0 99.2126,44.418994 99.2126,99.2126 z" /></g><g
         transform="matrix(0.06,0,0,-0.06,24,225)"
         id="g362"><path
           inkscape:connector-curvature="0"
           id="path364"
           style="fill:#000000;fill-opacity:1;fill-rule:evenodd;stroke:none"
           d="m 4538.1311,3119.9597 c 0,54.7936 -44.419,99.2126 -99.2126,99.2126 -54.7936,0 -99.2126,-44.419 -99.2126,-99.2126 0,-54.7937 44.419,-99.2127 99.2126,-99.2127 54.7936,0 99.2126,44.419 99.2126,99.2127 z" /></g><g
         transform="matrix(0.06,0,0,-0.06,282.78237,45.355164)"
         id="g366"><path
           inkscape:connector-curvature="0"
           id="path368"
           style="fill:none;stroke:#000000;stroke-width:12;stroke-linecap:butt;stroke-linejoin:miter;stroke-miterlimit:10;stroke-opacity:1;stroke-dasharray:none"
           d="m 225.0916,125.879 c 0,54.7936 -44.419,99.2126 -99.2126,99.2126 -54.793606,0 -99.2126,-44.419 -99.2126,-99.2126 0,-54.793606 44.418994,-99.2126 99.2126,-99.2126 54.7936,0 99.2126,44.418994 99.2126,99.2126 z" /></g><g
         transform="matrix(0.06,0,0,-0.06,24,225)"
         id="g418"><path
           inkscape:connector-curvature="0"
           id="path420"
           style="fill:#000000;fill-opacity:1;fill-rule:evenodd;stroke:none"
           d="m 3838.9196,2614.1606 c -18.8882,0 -34.2,-15.3119 -34.2,-34.2001 0,-18.8881 15.3118,-34.2 34.2,-34.2 18.8881,0 34.1999,15.3119 34.1999,34.2 0,18.8882 -15.3118,34.2001 -34.1999,34.2001 z" /></g><g
         transform="matrix(0,-0.06000001,-0.05999999,0,265.13517,117.00238)"
         id="g422"><path
           inkscape:connector-curvature="0"
           id="path424"
           style="fill:none;stroke:#000000;stroke-width:32.40000153;stroke-linecap:butt;stroke-linejoin:miter;stroke-miterlimit:10;stroke-opacity:1;stroke-dasharray:none"
           d="m 814.2,180 c 0,18.88814 -15.31186,34.2 -34.2,34.2 -18.88814,0 -34.2,-15.31186 -34.2,-34.2 0,-18.88814 15.31186,-34.2 34.2,-34.2 18.88814,0 34.2,15.31186 34.2,34.2 z" /></g><g
         transform="matrix(0.06,0,0,-0.06,24,225)"
         id="g426"><path
           inkscape:connector-curvature="0"
           id="path428"
           style="fill:#000000;fill-opacity:1;fill-rule:evenodd;stroke:none"
           d="m 3718.9196,2614.1606 c -18.8882,0 -34.2,-15.3119 -34.2,-34.2001 0,-18.8881 15.3118,-34.2 34.2,-34.2 18.8881,0 34.2,15.3119 34.2,34.2 0,18.8882 -15.3119,34.2001 -34.2,34.2001 z" /></g><g
         transform="matrix(0,-0.06000001,-0.05999999,0,265.13517,117.00238)"
         id="g430"><path
           inkscape:connector-curvature="0"
           id="path432"
           style="fill:none;stroke:#000000;stroke-width:32.40000153;stroke-linecap:butt;stroke-linejoin:miter;stroke-miterlimit:10;stroke-opacity:1;stroke-dasharray:none"
           d="m 814.2,300 c 0,18.88814 -15.31186,34.2 -34.2,34.2 -18.88814,0 -34.2,-15.31186 -34.2,-34.2 0,-18.88814 15.31186,-34.2 34.2,-34.2 18.88814,0 34.2,15.31186 34.2,34.2 z" /></g><g
         transform="matrix(0.06,0,0,-0.06,24,225)"
         id="g434"><path
           inkscape:connector-curvature="0"
           id="path436"
           style="fill:#000000;fill-opacity:1;fill-rule:evenodd;stroke:none"
           d="m 3598.9196,2614.1606 c -18.8882,0 -34.2,-15.3119 -34.2,-34.2001 0,-18.8881 15.3118,-34.2 34.2,-34.2 18.8881,0 34.2,15.3119 34.2,34.2 0,18.8882 -15.3119,34.2001 -34.2,34.2001 z" /></g><g
         transform="matrix(0,-0.06000001,-0.05999999,0,265.13517,117.00238)"
         id="g438"><path
           inkscape:connector-curvature="0"
           id="path440"
           style="fill:none;stroke:#000000;stroke-width:32.40000153;stroke-linecap:butt;stroke-linejoin:miter;stroke-miterlimit:10;stroke-opacity:1;stroke-dasharray:none"
           d="m 814.2,420 c 0,18.88814 -15.31186,34.2 -34.2,34.2 -18.88814,0 -34.2,-15.31186 -34.2,-34.2 0,-18.88814 15.31186,-34.2 34.2,-34.2 18.88814,0 34.2,15.31186 34.2,34.2 z" /></g><g
         transform="matrix(0.06,0,0,-0.06,24,225)"
         id="g442"><path
           inkscape:connector-curvature="0"
           id="path444"
           style="fill:#000000;fill-opacity:1;fill-rule:evenodd;stroke:none"
           d="m 3478.9196,2614.1606 c -18.8881,0 -34.2,-15.3119 -34.2,-34.2001 0,-18.8881 15.3119,-34.2 34.2,-34.2 18.8881,0 34.2,15.3119 34.2,34.2 0,18.8882 -15.3119,34.2001 -34.2,34.2001 z" /></g><g
         transform="matrix(0,-0.06000001,-0.05999999,0,265.13517,117.00238)"
         id="g446"><path
           inkscape:connector-curvature="0"
           id="path448"
           style="fill:none;stroke:#000000;stroke-width:32.40000153;stroke-linecap:butt;stroke-linejoin:miter;stroke-miterlimit:10;stroke-opacity:1;stroke-dasharray:none"
           d="m 814.2,540 c 0,18.88814 -15.31186,34.2 -34.2,34.2 -18.88814,0 -34.2,-15.31186 -34.2,-34.2 0,-18.88814 15.31186,-34.2 34.2,-34.2 18.88814,0 34.2,15.31186 34.2,34.2 z" /></g><g
         transform="matrix(0.06,0,0,-0.06,24,225)"
         id="g450"><path
           inkscape:connector-curvature="0"
           id="path452"
           style="fill:#000000;fill-opacity:1;fill-rule:evenodd;stroke:none"
           d="m 3358.9196,2614.1606 c -18.8881,0 -34.2,-15.3119 -34.2,-34.2001 0,-18.8881 15.3119,-34.2 34.2,-34.2 18.8881,0 34.2,15.3119 34.2,34.2 0,18.8882 -15.3119,34.2001 -34.2,34.2001 z" /></g><g
         transform="matrix(0,-0.06000001,-0.05999999,0,265.13517,117.00238)"
         id="g454"><path
           inkscape:connector-curvature="0"
           id="path456"
           style="fill:none;stroke:#000000;stroke-width:32.40000153;stroke-linecap:butt;stroke-linejoin:miter;stroke-miterlimit:10;stroke-opacity:1;stroke-dasharray:none"
           d="m 814.2,660 c 0,18.88814 -15.31186,34.2 -34.2,34.2 -18.88814,0 -34.2,-15.31186 -34.2,-34.2 0,-18.88814 15.31186,-34.2 34.2,-34.2 18.88814,0 34.2,15.31186 34.2,34.2 z" /></g><g
         transform="matrix(0.06,0,0,-0.06,24,225)"
         id="g458"><path
           inkscape:connector-curvature="0"
           id="path460"
           style="fill:#000000;fill-opacity:1;fill-rule:evenodd;stroke:none"
           d="m 3424.9196,2476.1435 c -18.8881,0 -34.2,-15.3118 -34.2,-34.2 0,-18.8881 15.3119,-34.2 34.2,-34.2 18.8881,0 34.2,15.3119 34.2,34.2 0,18.8882 -15.3119,34.2 -34.2,34.2 z" /></g><g
         transform="matrix(0,-0.06000001,-0.05999999,0,265.13517,117.00238)"
         id="g462"><path
           inkscape:connector-curvature="0"
           id="path464"
           style="fill:none;stroke:#000000;stroke-width:32.40000153;stroke-linecap:butt;stroke-linejoin:miter;stroke-miterlimit:10;stroke-opacity:1;stroke-dasharray:none"
           d="m 676.183,594 c 0,18.88814 -15.31186,34.2 -34.2,34.2 -18.88814,0 -34.2,-15.31186 -34.2,-34.2 0,-18.88814 15.31186,-34.2 34.2,-34.2 18.88814,0 34.2,15.31186 34.2,34.2 z" /></g><g
         transform="matrix(0.06,0,0,-0.06,24,225)"
         id="g466"><path
           inkscape:connector-curvature="0"
           id="path468"
           style="fill:#000000;fill-opacity:1;fill-rule:evenodd;stroke:none"
           d="m 3304.9196,2476.1435 c -18.8881,0 -34.2,-15.3118 -34.2,-34.2 0,-18.8881 15.3119,-34.2 34.2,-34.2 18.8882,0 34.2,15.3119 34.2,34.2 0,18.8882 -15.3118,34.2 -34.2,34.2 z" /></g><g
         transform="matrix(0,-0.06000001,-0.05999999,0,265.13517,117.00238)"
         id="g470"><path
           inkscape:connector-curvature="0"
           id="path472"
           style="fill:none;stroke:#000000;stroke-width:32.40000153;stroke-linecap:butt;stroke-linejoin:miter;stroke-miterlimit:10;stroke-opacity:1;stroke-dasharray:none"
           d="m 676.183,714 c 0,18.88814 -15.31186,34.2 -34.2,34.2 -18.88814,0 -34.2,-15.31186 -34.2,-34.2 0,-18.88814 15.31186,-34.2 34.2,-34.2 18.88814,0 34.2,15.31186 34.2,34.2 z" /></g><g
         transform="matrix(0.06,0,0,-0.06,24,225)"
         id="g474"><path
           inkscape:connector-curvature="0"
           id="path476"
           style="fill:#000000;fill-opacity:1;fill-rule:evenodd;stroke:none"
           d="m 3238.9196,2614.1606 c -18.8881,0 -34.2,-15.3119 -34.2,-34.2001 0,-18.8881 15.3119,-34.2 34.2,-34.2 18.8882,0 34.2,15.3119 34.2,34.2 0,18.8882 -15.3118,34.2001 -34.2,34.2001 z" /></g><g
         transform="matrix(0,-0.06000001,-0.05999999,0,265.13517,117.00238)"
         id="g478"><path
           inkscape:connector-curvature="0"
           id="path480"
           style="fill:none;stroke:#000000;stroke-width:32.40000153;stroke-linecap:butt;stroke-linejoin:miter;stroke-miterlimit:10;stroke-opacity:1;stroke-dasharray:none"
           d="m 814.2,780 c 0,18.88814 -15.31186,34.2 -34.2,34.2 -18.88814,0 -34.2,-15.31186 -34.2,-34.2 0,-18.88814 15.31186,-34.2 34.2,-34.2 18.88814,0 34.2,15.31186 34.2,34.2 z" /></g><g
         transform="matrix(0.06,0,0,-0.06,24,225)"
         id="g482"><path
           inkscape:connector-curvature="0"
           id="path484"
           style="fill:#000000;fill-opacity:1;fill-rule:evenodd;stroke:none"
           d="m 3118.9196,2614.1606 c -18.8881,0 -34.2,-15.3119 -34.2,-34.2001 0,-18.8881 15.3119,-34.2 34.2,-34.2 18.8882,0 34.2,15.3119 34.2,34.2 0,18.8882 -15.3118,34.2001 -34.2,34.2001 z" /></g><g
         transform="matrix(0,-0.06000001,-0.05999999,0,265.13517,117.00238)"
         id="g486"><path
           inkscape:connector-curvature="0"
           id="path488"
           style="fill:none;stroke:#000000;stroke-width:32.40000153;stroke-linecap:butt;stroke-linejoin:miter;stroke-miterlimit:10;stroke-opacity:1;stroke-dasharray:none"
           d="m 814.2,900 c 0,18.88814 -15.31186,34.2 -34.2,34.2 -18.88814,0 -34.2,-15.31186 -34.2,-34.2 0,-18.88814 15.31186,-34.2 34.2,-34.2 18.88814,0 34.2,15.31186 34.2,34.2 z" /></g><g
         transform="matrix(0.06,0,0,-0.06,24,225)"
         id="g490"><path
           inkscape:connector-curvature="0"
           id="path492"
           style="fill:#000000;fill-opacity:1;fill-rule:evenodd;stroke:none"
           d="m 2998.9197,2614.1606 c -18.8882,0 -34.2,-15.3119 -34.2,-34.2001 0,-18.8881 15.3118,-34.2 34.2,-34.2 18.8881,0 34.1999,15.3119 34.1999,34.2 0,18.8882 -15.3118,34.2001 -34.1999,34.2001 z" /></g><g
         transform="matrix(0,-0.06000001,-0.05999999,0,265.13517,117.00238)"
         id="g494"><path
           inkscape:connector-curvature="0"
           id="path496"
           style="fill:none;stroke:#000000;stroke-width:32.40000153;stroke-linecap:butt;stroke-linejoin:miter;stroke-miterlimit:10;stroke-opacity:1;stroke-dasharray:none"
           d="m 814.2,1020 c 0,18.8881 -15.31186,34.2 -34.2,34.2 -18.88814,0 -34.2,-15.3119 -34.2,-34.2 0,-18.8881 15.31186,-34.2 34.2,-34.2 18.88814,0 34.2,15.3119 34.2,34.2 z" /></g><g
         transform="matrix(0.06,0,0,-0.06,24,225)"
         id="g498"><path
           inkscape:connector-curvature="0"
           id="path500"
           style="fill:#000000;fill-opacity:1;fill-rule:evenodd;stroke:none"
           d="m 2878.9197,2614.1606 c -18.8882,0 -34.2,-15.3119 -34.2,-34.2001 0,-18.8881 15.3118,-34.2 34.2,-34.2 18.8881,0 34.2,15.3119 34.2,34.2 0,18.8882 -15.3119,34.2001 -34.2,34.2001 z" /></g><g
         transform="matrix(0,-0.06000001,-0.05999999,0,265.13517,117.00238)"
         id="g502"><path
           inkscape:connector-curvature="0"
           id="path504"
           style="fill:none;stroke:#000000;stroke-width:32.40000153;stroke-linecap:butt;stroke-linejoin:miter;stroke-miterlimit:10;stroke-opacity:1;stroke-dasharray:none"
           d="m 814.2,1140 c 0,18.8881 -15.31186,34.2 -34.2,34.2 -18.88814,0 -34.2,-15.3119 -34.2,-34.2 0,-18.8881 15.31186,-34.2 34.2,-34.2 18.88814,0 34.2,15.3119 34.2,34.2 z" /></g><g
         transform="matrix(0.06,0,0,-0.06,24,225)"
         id="g506"><path
           inkscape:connector-curvature="0"
           id="path508"
           style="fill:#000000;fill-opacity:1;fill-rule:evenodd;stroke:none"
           d="m 2758.9197,2614.1606 c -18.8882,0 -34.2,-15.3119 -34.2,-34.2001 0,-18.8881 15.3118,-34.2 34.2,-34.2 18.8881,0 34.2,15.3119 34.2,34.2 0,18.8882 -15.3119,34.2001 -34.2,34.2001 z" /></g><g
         transform="matrix(0,-0.06000001,-0.05999999,0,265.13517,117.00238)"
         id="g510"><path
           inkscape:connector-curvature="0"
           id="path512"
           style="fill:none;stroke:#000000;stroke-width:32.40000153;stroke-linecap:butt;stroke-linejoin:miter;stroke-miterlimit:10;stroke-opacity:1;stroke-dasharray:none"
           d="m 814.2,1260 c 0,18.8881 -15.31186,34.2 -34.2,34.2 -18.88814,0 -34.2,-15.3119 -34.2,-34.2 0,-18.8881 15.31186,-34.2 34.2,-34.2 18.88814,0 34.2,15.3119 34.2,34.2 z" /></g><g
         transform="matrix(0.06,0,0,-0.06,24,225)"
         id="g514"><path
           inkscape:connector-curvature="0"
           id="path516"
           style="fill:#000000;fill-opacity:1;fill-rule:evenodd;stroke:none"
           d="m 2638.9197,2614.1606 c -18.8881,0 -34.2,-15.3119 -34.2,-34.2001 0,-18.8881 15.3119,-34.2 34.2,-34.2 18.8881,0 34.2,15.3119 34.2,34.2 0,18.8882 -15.3119,34.2001 -34.2,34.2001 z" /></g><g
         transform="matrix(0,-0.06000001,-0.05999999,0,265.13517,117.00238)"
         id="g518"><path
           inkscape:connector-curvature="0"
           id="path520"
           style="fill:none;stroke:#000000;stroke-width:32.40000153;stroke-linecap:butt;stroke-linejoin:miter;stroke-miterlimit:10;stroke-opacity:1;stroke-dasharray:none"
           d="m 814.2,1380 c 0,18.8881 -15.31186,34.2 -34.2,34.2 -18.88814,0 -34.2,-15.3119 -34.2,-34.2 0,-18.8881 15.31186,-34.2 34.2,-34.2 18.88814,0 34.2,15.3119 34.2,34.2 z" /></g><g
         transform="matrix(0.06,0,0,-0.06,24,225)"
         id="g522"><path
           inkscape:connector-curvature="0"
           id="path524"
           style="fill:#000000;fill-opacity:1;fill-rule:evenodd;stroke:none"
           d="m 2518.9197,2614.1606 c -18.8881,0 -34.2,-15.3119 -34.2,-34.2001 0,-18.8881 15.3119,-34.2 34.2,-34.2 18.8881,0 34.2,15.3119 34.2,34.2 0,18.8882 -15.3119,34.2001 -34.2,34.2001 z" /></g><g
         transform="matrix(0,-0.06000001,-0.05999999,0,265.13517,117.00238)"
         id="g526"><path
           inkscape:connector-curvature="0"
           id="path528"
           style="fill:none;stroke:#000000;stroke-width:32.40000153;stroke-linecap:butt;stroke-linejoin:miter;stroke-miterlimit:10;stroke-opacity:1;stroke-dasharray:none"
           d="m 814.2,1500 c 0,18.8881 -15.31186,34.2 -34.2,34.2 -18.88814,0 -34.2,-15.3119 -34.2,-34.2 0,-18.8881 15.31186,-34.2 34.2,-34.2 18.88814,0 34.2,15.3119 34.2,34.2 z" /></g><g
         transform="matrix(0.06,0,0,-0.06,24,225)"
         id="g530"><path
           inkscape:connector-curvature="0"
           id="path532"
           style="fill:#000000;fill-opacity:1;fill-rule:evenodd;stroke:none"
           d="m 2518.9197,1894.1604 c -18.8881,0 -34.2,-15.3119 -34.2,-34.2 0,-18.8881 15.3119,-34.2 34.2,-34.2 18.8881,0 34.2,15.3119 34.2,34.2 0,18.8881 -15.3119,34.2 -34.2,34.2 z" /></g><g
         transform="matrix(0,-0.06000001,-0.05999999,0,265.13517,117.00238)"
         id="g534"><path
           inkscape:connector-curvature="0"
           id="path536"
           style="fill:none;stroke:#000000;stroke-width:32.40000153;stroke-linecap:butt;stroke-linejoin:miter;stroke-miterlimit:10;stroke-opacity:1;stroke-dasharray:none"
           d="m 94.2,1500 c 0,18.8881 -15.311862,34.2 -34.2,34.2 -18.888139,0 -34.2,-15.3119 -34.2,-34.2 0,-18.8881 15.311861,-34.2 34.2,-34.2 18.888138,0 34.2,15.3119 34.2,34.2 z" /></g><g
         transform="matrix(0.06,0,0,-0.06,24,225)"
         id="g538"><path
           inkscape:connector-curvature="0"
           id="path540"
           style="fill:#000000;fill-opacity:1;fill-rule:evenodd;stroke:none"
           d="m 2638.9197,1894.1604 c -18.8881,0 -34.2,-15.3119 -34.2,-34.2 0,-18.8881 15.3119,-34.2 34.2,-34.2 18.8881,0 34.2,15.3119 34.2,34.2 0,18.8881 -15.3119,34.2 -34.2,34.2 z" /></g><g
         transform="matrix(0,-0.06000001,-0.05999999,0,265.13517,117.00238)"
         id="g542"><path
           inkscape:connector-curvature="0"
           id="path544"
           style="fill:none;stroke:#000000;stroke-width:32.40000153;stroke-linecap:butt;stroke-linejoin:miter;stroke-miterlimit:10;stroke-opacity:1;stroke-dasharray:none"
           d="m 94.2,1380 c 0,18.8881 -15.311862,34.2 -34.2,34.2 -18.888139,0 -34.2,-15.3119 -34.2,-34.2 0,-18.8881 15.311861,-34.2 34.2,-34.2 18.888138,0 34.2,15.3119 34.2,34.2 z" /></g><g
         transform="matrix(0.06,0,0,-0.06,24,225)"
         id="g546"><path
           inkscape:connector-curvature="0"
           id="path548"
           style="fill:#000000;fill-opacity:1;fill-rule:evenodd;stroke:none"
           d="m 2758.9197,1894.1604 c -18.8882,0 -34.2,-15.3119 -34.2,-34.2 0,-18.8881 15.3118,-34.2 34.2,-34.2 18.8881,0 34.2,15.3119 34.2,34.2 0,18.8881 -15.3119,34.2 -34.2,34.2 z" /></g><g
         transform="matrix(0,-0.06000001,-0.05999999,0,265.13517,117.00238)"
         id="g550"><path
           inkscape:connector-curvature="0"
           id="path552"
           style="fill:none;stroke:#000000;stroke-width:32.40000153;stroke-linecap:butt;stroke-linejoin:miter;stroke-miterlimit:10;stroke-opacity:1;stroke-dasharray:none"
           d="m 94.2,1260 c 0,18.8881 -15.311862,34.2 -34.2,34.2 -18.888139,0 -34.2,-15.3119 -34.2,-34.2 0,-18.8881 15.311861,-34.2 34.2,-34.2 18.888138,0 34.2,15.3119 34.2,34.2 z" /></g><g
         transform="matrix(0.06,0,0,-0.06,24,225)"
         id="g554"><path
           inkscape:connector-curvature="0"
           id="path556"
           style="fill:#000000;fill-opacity:1;fill-rule:evenodd;stroke:none"
           d="m 2878.9197,1894.1604 c -18.8882,0 -34.2,-15.3119 -34.2,-34.2 0,-18.8881 15.3118,-34.2 34.2,-34.2 18.8881,0 34.2,15.3119 34.2,34.2 0,18.8881 -15.3119,34.2 -34.2,34.2 z" /></g><g
         transform="matrix(0,-0.06000001,-0.05999999,0,265.13517,117.00238)"
         id="g558"><path
           inkscape:connector-curvature="0"
           id="path560"
           style="fill:none;stroke:#000000;stroke-width:32.40000153;stroke-linecap:butt;stroke-linejoin:miter;stroke-miterlimit:10;stroke-opacity:1;stroke-dasharray:none"
           d="m 94.2,1140 c 0,18.8881 -15.311862,34.2 -34.2,34.2 -18.888139,0 -34.2,-15.3119 -34.2,-34.2 0,-18.8881 15.311861,-34.2 34.2,-34.2 18.888138,0 34.2,15.3119 34.2,34.2 z" /></g><g
         transform="matrix(0.06,0,0,-0.06,24,225)"
         id="g562"><path
           inkscape:connector-curvature="0"
           id="path564"
           style="fill:#000000;fill-opacity:1;fill-rule:evenodd;stroke:none"
           d="m 2998.9197,1894.1604 c -18.8882,0 -34.2,-15.3119 -34.2,-34.2 0,-18.8881 15.3118,-34.2 34.2,-34.2 18.8881,0 34.1999,15.3119 34.1999,34.2 0,18.8881 -15.3118,34.2 -34.1999,34.2 z" /></g><g
         transform="matrix(0,-0.06000001,-0.05999999,0,265.13517,117.00238)"
         id="g566"><path
           inkscape:connector-curvature="0"
           id="path568"
           style="fill:none;stroke:#000000;stroke-width:32.40000153;stroke-linecap:butt;stroke-linejoin:miter;stroke-miterlimit:10;stroke-opacity:1;stroke-dasharray:none"
           d="m 94.2,1020 c 0,18.8881 -15.311862,34.2 -34.2,34.2 -18.888139,0 -34.2,-15.3119 -34.2,-34.2 0,-18.8881 15.311861,-34.2 34.2,-34.2 18.888138,0 34.2,15.3119 34.2,34.2 z" /></g><g
         transform="matrix(0.06,0,0,-0.06,24,225)"
         id="g570"><path
           inkscape:connector-curvature="0"
           id="path572"
           style="fill:#000000;fill-opacity:1;fill-rule:evenodd;stroke:none"
           d="m 3118.9196,1894.1604 c -18.8881,0 -34.2,-15.3119 -34.2,-34.2 0,-18.8881 15.3119,-34.2 34.2,-34.2 18.8882,0 34.2,15.3119 34.2,34.2 0,18.8881 -15.3118,34.2 -34.2,34.2 z" /></g><g
         transform="matrix(0,-0.06000001,-0.05999999,0,265.13517,117.00238)"
         id="g574"><path
           inkscape:connector-curvature="0"
           id="path576"
           style="fill:none;stroke:#000000;stroke-width:32.40000153;stroke-linecap:butt;stroke-linejoin:miter;stroke-miterlimit:10;stroke-opacity:1;stroke-dasharray:none"
           d="m 94.2,900 c 0,18.88814 -15.311862,34.2 -34.2,34.2 -18.888139,0 -34.2,-15.31186 -34.2,-34.2 0,-18.88814 15.311861,-34.2 34.2,-34.2 18.888138,0 34.2,15.31186 34.2,34.2 z" /></g><g
         transform="matrix(0.06,0,0,-0.06,24,225)"
         id="g578"><path
           inkscape:connector-curvature="0"
           id="path580"
           style="fill:#000000;fill-opacity:1;fill-rule:evenodd;stroke:none"
           d="m 3238.9196,1894.1604 c -18.8881,0 -34.2,-15.3119 -34.2,-34.2 0,-18.8881 15.3119,-34.2 34.2,-34.2 18.8882,0 34.2,15.3119 34.2,34.2 0,18.8881 -15.3118,34.2 -34.2,34.2 z" /></g><g
         transform="matrix(0,-0.06000001,-0.05999999,0,265.13517,117.00238)"
         id="g582"><path
           inkscape:connector-curvature="0"
           id="path584"
           style="fill:none;stroke:#000000;stroke-width:32.40000153;stroke-linecap:butt;stroke-linejoin:miter;stroke-miterlimit:10;stroke-opacity:1;stroke-dasharray:none"
           d="m 94.2,780 c 0,18.88814 -15.311862,34.2 -34.2,34.2 -18.888139,0 -34.2,-15.31186 -34.2,-34.2 0,-18.88814 15.311861,-34.2 34.2,-34.2 18.888138,0 34.2,15.31186 34.2,34.2 z" /></g><g
         transform="matrix(0.06,0,0,-0.06,24,225)"
         id="g586"><path
           inkscape:connector-curvature="0"
           id="path588"
           style="fill:#000000;fill-opacity:1;fill-rule:evenodd;stroke:none"
           d="m 3358.9196,1894.1604 c -18.8881,0 -34.2,-15.3119 -34.2,-34.2 0,-18.8881 15.3119,-34.2 34.2,-34.2 18.8881,0 34.2,15.3119 34.2,34.2 0,18.8881 -15.3119,34.2 -34.2,34.2 z" /></g><g
         transform="matrix(0,-0.06000001,-0.05999999,0,265.13517,117.00238)"
         id="g590"><path
           inkscape:connector-curvature="0"
           id="path592"
           style="fill:none;stroke:#000000;stroke-width:32.40000153;stroke-linecap:butt;stroke-linejoin:miter;stroke-miterlimit:10;stroke-opacity:1;stroke-dasharray:none"
           d="m 94.2,660 c 0,18.88814 -15.311862,34.2 -34.2,34.2 -18.888139,0 -34.2,-15.31186 -34.2,-34.2 0,-18.88814 15.311861,-34.2 34.2,-34.2 18.888138,0 34.2,15.31186 34.2,34.2 z" /></g><g
         transform="matrix(0.06,0,0,-0.06,24,225)"
         id="g594"><path
           inkscape:connector-curvature="0"
           id="path596"
           style="fill:#000000;fill-opacity:1;fill-rule:evenodd;stroke:none"
           d="m 3478.9196,1894.1604 c -18.8881,0 -34.2,-15.3119 -34.2,-34.2 0,-18.8881 15.3119,-34.2 34.2,-34.2 18.8881,0 34.2,15.3119 34.2,34.2 0,18.8881 -15.3119,34.2 -34.2,34.2 z" /></g><g
         transform="matrix(0,-0.06000001,-0.05999999,0,265.13517,117.00238)"
         id="g598"><path
           inkscape:connector-curvature="0"
           id="path600"
           style="fill:none;stroke:#000000;stroke-width:32.40000153;stroke-linecap:butt;stroke-linejoin:miter;stroke-miterlimit:10;stroke-opacity:1;stroke-dasharray:none"
           d="m 94.2,540 c 0,18.88814 -15.311862,34.2 -34.2,34.2 -18.888139,0 -34.2,-15.31186 -34.2,-34.2 0,-18.88814 15.311861,-34.2 34.2,-34.2 18.888138,0 34.2,15.31186 34.2,34.2 z" /></g><g
         transform="matrix(0.06,0,0,-0.06,24,225)"
         id="g602"><path
           inkscape:connector-curvature="0"
           id="path604"
           style="fill:#000000;fill-opacity:1;fill-rule:evenodd;stroke:none"
           d="m 3598.9196,1894.1604 c -18.8882,0 -34.2,-15.3119 -34.2,-34.2 0,-18.8881 15.3118,-34.2 34.2,-34.2 18.8881,0 34.2,15.3119 34.2,34.2 0,18.8881 -15.3119,34.2 -34.2,34.2 z" /></g><g
         transform="matrix(0,-0.06000001,-0.05999999,0,265.13517,117.00238)"
         id="g606"><path
           inkscape:connector-curvature="0"
           id="path608"
           style="fill:none;stroke:#000000;stroke-width:32.40000153;stroke-linecap:butt;stroke-linejoin:miter;stroke-miterlimit:10;stroke-opacity:1;stroke-dasharray:none"
           d="m 94.2,420 c 0,18.88814 -15.311862,34.2 -34.2,34.2 -18.888139,0 -34.2,-15.31186 -34.2,-34.2 0,-18.88814 15.311861,-34.2 34.2,-34.2 18.888138,0 34.2,15.31186 34.2,34.2 z" /></g><g
         transform="matrix(0.06,0,0,-0.06,24,225)"
         id="g610"><path
           inkscape:connector-curvature="0"
           id="path612"
           style="fill:#000000;fill-opacity:1;fill-rule:evenodd;stroke:none"
           d="m 3718.9196,1894.1604 c -18.8882,0 -34.2,-15.3119 -34.2,-34.2 0,-18.8881 15.3118,-34.2 34.2,-34.2 18.8881,0 34.2,15.3119 34.2,34.2 0,18.8881 -15.3119,34.2 -34.2,34.2 z" /></g><g
         transform="matrix(0,-0.06000001,-0.05999999,0,265.13517,117.00238)"
         id="g614"><path
           inkscape:connector-curvature="0"
           id="path616"
           style="fill:none;stroke:#000000;stroke-width:32.40000153;stroke-linecap:butt;stroke-linejoin:miter;stroke-miterlimit:10;stroke-opacity:1;stroke-dasharray:none"
           d="m 94.2,300 c 0,18.88814 -15.311862,34.2 -34.2,34.2 -18.888139,0 -34.2,-15.31186 -34.2,-34.2 0,-18.88814 15.311861,-34.2 34.2,-34.2 18.888138,0 34.2,15.31186 34.2,34.2 z" /></g><g
         transform="matrix(0.06,0,0,-0.06,24,225)"
         id="g618"><path
           inkscape:connector-curvature="0"
           id="path620"
           style="fill:#000000;fill-opacity:1;fill-rule:evenodd;stroke:none"
           d="m 3838.9196,1894.1604 c -18.8882,0 -34.2,-15.3119 -34.2,-34.2 0,-18.8881 15.3118,-34.2 34.2,-34.2 18.8881,0 34.1999,15.3119 34.1999,34.2 0,18.8881 -15.3118,34.2 -34.1999,34.2 z" /></g><g
         transform="matrix(0,-0.06000001,-0.05999999,0,265.13517,117.00238)"
         id="g622"><path
           inkscape:connector-curvature="0"
           id="path624"
           style="fill:none;stroke:#000000;stroke-width:32.40000153;stroke-linecap:butt;stroke-linejoin:miter;stroke-miterlimit:10;stroke-opacity:1;stroke-dasharray:none"
           d="m 94.2,180 c 0,18.88814 -15.311862,34.2 -34.2,34.2 -18.888139,0 -34.2,-15.31186 -34.2,-34.2 0,-18.88814 15.311861,-34.2 34.2,-34.2 18.888138,0 34.2,15.31186 34.2,34.2 z" /></g><g
         transform="matrix(0.06,0,0,-0.06,24,225)"
         id="g626"><path
           inkscape:connector-curvature="0"
           id="path628"
           style="fill:#000000;fill-opacity:1;fill-rule:evenodd;stroke:none"
           d="m 598.91593,2192.9605 c -18.22539,0 -33,-14.7747 -33,-33 0,-18.2254 14.77461,-33.0001 33,-33.0001 18.22539,0 33,14.7747 33,33.0001 0,18.2253 -14.77461,33 -33,33 z" /></g><g
         transform="matrix(0,-0.06000001,-0.05999999,0,63.030955,98.102376)"
         id="g630"><path
           inkscape:connector-curvature="0"
           id="path632"
           style="fill:none;stroke:#000000;stroke-width:36;stroke-linecap:butt;stroke-linejoin:miter;stroke-miterlimit:10;stroke-opacity:1;stroke-dasharray:none"
           d="m 78,51.6 c 0,18.225397 -14.774603,33 -33,33 -18.225397,0 -33,-14.774603 -33,-33 0,-18.225397 14.774603,-33 33,-33 18.225397,0 33,14.774603 33,33 z" /></g><g
         transform="matrix(0.06,0,0,-0.06,24,225)"
         id="g634"><path
           inkscape:connector-curvature="0"
           id="path636"
           style="fill:#000000;fill-opacity:1;fill-rule:evenodd;stroke:none"
           d="m 598.91593,2672.9606 c -18.22539,0 -33,-14.7746 -33,-33 0,-18.2254 14.77461,-33 33,-33 18.22539,0 33,14.7746 33,33 0,18.2254 -14.77461,33 -33,33 z" /></g><g
         transform="matrix(0,-0.06000001,-0.05999999,0,63.030955,98.102376)"
         id="g638"><path
           inkscape:connector-curvature="0"
           id="path640"
           style="fill:none;stroke:#000000;stroke-width:36;stroke-linecap:butt;stroke-linejoin:miter;stroke-miterlimit:10;stroke-opacity:1;stroke-dasharray:none"
           d="m 558,51.6 c 0,18.225397 -14.7746,33 -33,33 -18.2254,0 -33,-14.774603 -33,-33 0,-18.225397 14.7746,-33 33,-33 18.2254,0 33,14.774603 33,33 z" /></g><g
         transform="matrix(0.06,0,0,-0.06,24,225)"
         id="g642"><path
           inkscape:connector-curvature="0"
           id="path644"
           style="fill:#000000;fill-opacity:1;fill-rule:evenodd;stroke:none"
           d="m 838.9159,2192.9605 c -18.22539,0 -33,-14.7747 -33,-33 0,-18.2254 14.77461,-33.0001 33,-33.0001 18.2254,0 33,14.7747 33,33.0001 0,18.2253 -14.7746,33 -33,33 z" /></g><g
         transform="matrix(0,-0.06000001,-0.05999999,0,77.430954,98.102376)"
         id="g646"><path
           inkscape:connector-curvature="0"
           id="path648"
           style="fill:none;stroke:#000000;stroke-width:36;stroke-linecap:butt;stroke-linejoin:miter;stroke-miterlimit:10;stroke-opacity:1;stroke-dasharray:none"
           d="m 78,51.6 c 0,18.225397 -14.774603,33 -33,33 -18.225397,0 -33,-14.774603 -33,-33 0,-18.225397 14.774603,-33 33,-33 18.225397,0 33,14.774603 33,33 z" /></g><g
         transform="matrix(0.06,0,0,-0.06,24,225)"
         id="g650"><path
           inkscape:connector-curvature="0"
           id="path652"
           style="fill:#000000;fill-opacity:1;fill-rule:evenodd;stroke:none"
           d="m 838.9159,2672.9606 c -18.22539,0 -33,-14.7746 -33,-33 0,-18.2254 14.77461,-33 33,-33 18.2254,0 33,14.7746 33,33 0,18.2254 -14.7746,33 -33,33 z" /></g><g
         transform="matrix(0,-0.06000001,-0.05999999,0,77.430954,98.102376)"
         id="g654"><path
           inkscape:connector-curvature="0"
           id="path656"
           style="fill:none;stroke:#000000;stroke-width:36;stroke-linecap:butt;stroke-linejoin:miter;stroke-miterlimit:10;stroke-opacity:1;stroke-dasharray:none"
           d="m 558,51.6 c 0,18.225397 -14.7746,33 -33,33 -18.2254,0 -33,-14.774603 -33,-33 0,-18.225397 14.7746,-33 33,-33 18.2254,0 33,14.774603 33,33 z" /></g><g
         transform="matrix(0.06,0,0,-0.06,24,225)"
         id="g658"><path
           inkscape:connector-curvature="0"
           id="path660"
           style="fill:#000000;fill-opacity:1;fill-rule:evenodd;stroke:none"
           d="m 1438.9198,2192.9605 c -18.2254,0 -33,-14.7747 -33,-33 0,-18.2254 14.7746,-33.0001 33,-33.0001 18.2254,0 33,14.7747 33,33.0001 0,18.2253 -14.7746,33 -33,33 z" /></g><g
         transform="matrix(0,-0.06000001,-0.05999999,0,113.43119,98.102376)"
         id="g662"><path
           inkscape:connector-curvature="0"
           id="path664"
           style="fill:none;stroke:#000000;stroke-width:36;stroke-linecap:butt;stroke-linejoin:miter;stroke-miterlimit:10;stroke-opacity:1;stroke-dasharray:none"
           d="m 78,51.6 c 0,18.225397 -14.774603,33 -33,33 -18.225397,0 -33,-14.774603 -33,-33 0,-18.225397 14.774603,-33 33,-33 18.225397,0 33,14.774603 33,33 z" /></g><g
         transform="matrix(0.06,0,0,-0.06,24,225)"
         id="g666"><path
           inkscape:connector-curvature="0"
           id="path668"
           style="fill:#000000;fill-opacity:1;fill-rule:evenodd;stroke:none"
           d="m 1438.9198,2672.9606 c -18.2254,0 -33,-14.7746 -33,-33 0,-18.2254 14.7746,-33 33,-33 18.2254,0 33,14.7746 33,33 0,18.2254 -14.7746,33 -33,33 z" /></g><g
         transform="matrix(0,-0.06000001,-0.05999999,0,113.43119,98.102376)"
         id="g670"><path
           inkscape:connector-curvature="0"
           id="path672"
           style="fill:none;stroke:#000000;stroke-width:36;stroke-linecap:butt;stroke-linejoin:miter;stroke-miterlimit:10;stroke-opacity:1;stroke-dasharray:none"
           d="m 558,51.6 c 0,18.225397 -14.7746,33 -33,33 -18.2254,0 -33,-14.774603 -33,-33 0,-18.225397 14.7746,-33 33,-33 18.2254,0 33,14.774603 33,33 z" /></g><g
         transform="matrix(0.06,0,0,-0.06,24,225)"
         id="g674"><path
           inkscape:connector-curvature="0"
           id="path676"
           style="fill:#000000;fill-opacity:1;fill-rule:evenodd;stroke:none"
           d="m 805.9159,1919.9604 c 0,-18.2254 14.77461,-33 33,-33 18.2254,0 33,14.7746 33,33 0,18.2254 -14.7746,33 -33,33 -18.22539,0 -33,-14.7746 -33,-33 z" /></g><g
         transform="matrix(-0.05999999,0,0,0.06000001,77.034954,106.70638)"
         id="g678"><path
           inkscape:connector-curvature="0"
           id="path680"
           style="fill:none;stroke:#000000;stroke-width:36;stroke-linecap:butt;stroke-linejoin:miter;stroke-miterlimit:10;stroke-opacity:1;stroke-dasharray:none"
           d="m 78,51.6 c 0,18.225397 -14.774603,33 -33,33 -18.225397,0 -33,-14.774603 -33,-33 0,-18.225397 14.774603,-33 33,-33 18.225397,0 33,14.774603 33,33 z" /></g><g
         transform="matrix(0.06,0,0,-0.06,24,225)"
         id="g682"><path
           inkscape:connector-curvature="0"
           id="path684"
           style="fill:#000000;fill-opacity:1;fill-rule:evenodd;stroke:none"
           d="m 325.91596,1919.9604 c 0,-18.2254 14.7746,-33 33,-33 18.22539,0 32.99999,14.7746 32.99999,33 0,18.2254 -14.7746,33 -32.99999,33 -18.2254,0 -33,-14.7746 -33,-33 z" /></g><g
         transform="matrix(-0.05999999,0,0,0.06000001,77.034954,106.70638)"
         id="g686"><path
           inkscape:connector-curvature="0"
           id="path688"
           style="fill:none;stroke:#000000;stroke-width:36;stroke-linecap:butt;stroke-linejoin:miter;stroke-miterlimit:10;stroke-opacity:1;stroke-dasharray:none"
           d="m 558,51.6 c 0,18.225397 -14.7746,33 -33,33 -18.2254,0 -33,-14.774603 -33,-33 0,-18.225397 14.7746,-33 33,-33 18.2254,0 33,14.774603 33,33 z" /></g><g
         transform="matrix(0.06,0,0,-0.06,24,225)"
         id="g690"><path
           inkscape:connector-curvature="0"
           id="path692"
           style="fill:#000000;fill-opacity:1;fill-rule:evenodd;stroke:none"
           d="m 2038.9198,2072.9604 c -18.2254,0 -33,-14.7746 -33,-33 0,-18.2254 14.7746,-33 33,-33 18.2254,0 33,14.7746 33,33 0,18.2254 -14.7746,33 -33,33 z" /></g><g
         transform="matrix(0,-0.06000001,-0.05999999,0,149.43119,105.30238)"
         id="g694"><path
           inkscape:connector-curvature="0"
           id="path696"
           style="fill:none;stroke:#000000;stroke-width:36;stroke-linecap:butt;stroke-linejoin:miter;stroke-miterlimit:10;stroke-opacity:1;stroke-dasharray:none"
           d="m 78,51.6 c 0,18.225397 -14.774603,33 -33,33 -18.225397,0 -33,-14.774603 -33,-33 0,-18.225397 14.774603,-33 33,-33 18.225397,0 33,14.774603 33,33 z" /></g><g
         transform="matrix(0.06,0,0,-0.06,24,225)"
         id="g698"><path
           inkscape:connector-curvature="0"
           id="path700"
           style="fill:#000000;fill-opacity:1;fill-rule:evenodd;stroke:none"
           d="m 2038.9198,2552.9605 c -18.2254,0 -33,-14.7746 -33,-33 0,-18.2254 14.7746,-33 33,-33 18.2254,0 33,14.7746 33,33 0,18.2254 -14.7746,33 -33,33 z" /></g><g
         transform="matrix(0,-0.06000001,-0.05999999,0,149.43119,105.30238)"
         id="g702"><path
           inkscape:connector-curvature="0"
           id="path704"
           style="fill:none;stroke:#000000;stroke-width:36;stroke-linecap:butt;stroke-linejoin:miter;stroke-miterlimit:10;stroke-opacity:1;stroke-dasharray:none"
           d="m 558,51.6 c 0,18.225397 -14.7746,33 -33,33 -18.2254,0 -33,-14.774603 -33,-33 0,-18.225397 14.7746,-33 33,-33 18.2254,0 33,14.774603 33,33 z" /></g><g
         transform="matrix(0.06,0,0,-0.06,24,225)"
         id="g706"><path
           inkscape:connector-curvature="0"
           id="path708"
           style="fill:#000000;fill-opacity:1;fill-rule:evenodd;stroke:none"
           d="m 837.0359,2851.6239 c 15.65545,0 28.3467,12.6913 28.3467,28.3467 0,15.6555 -12.69125,28.3467 -28.3467,28.3467 -15.65545,0 -28.34669,-12.6912 -28.34669,-28.3467 0,-15.6554 12.69124,-28.3467 28.34669,-28.3467 z" /></g><g
         transform="matrix(0,0.06000001,0.05999999,0,63.588535,43.414164)"
         id="g710"><path
           inkscape:connector-curvature="0"
           id="path712"
           style="fill:none;stroke:#000000;stroke-width:30.89730072;stroke-linecap:butt;stroke-linejoin:miter;stroke-miterlimit:10;stroke-opacity:1;stroke-dasharray:none"
           d="m 174.8067,177.227 c 0,15.65545 -12.69125,28.3467 -28.3467,28.3467 -15.65545,0 -28.3467,-12.69125 -28.3467,-28.3467 0,-15.65545 12.69125,-28.3467 28.3467,-28.3467 15.65545,0 28.3467,12.69125 28.3467,28.3467 z" /></g><g
         transform="matrix(0.06,0,0,-0.06,24,225)"
         id="g714"><g
           transform="matrix(0,-1.0000002,0.99999988,0,659.80892,3026.4306)"
           id="g716"><path
             inkscape:connector-curvature="0"
             id="path718"
             style="fill:#000000;fill-opacity:1;fill-rule:nonzero;stroke:none"
             d="m 118.113,148.88 56.6933,0 0,56.6933 -56.6933,0 0,-56.6933 z" /></g></g><g
         transform="matrix(0,0.06000001,0.05999999,0,63.588535,43.414164)"
         id="g720"><path
           inkscape:connector-curvature="0"
           id="path722"
           style="fill:none;stroke:#000000;stroke-width:30.89730072;stroke-linecap:butt;stroke-linejoin:miter;stroke-miterlimit:10;stroke-opacity:1;stroke-dasharray:none"
           d="m 118.113,148.88 56.6933,0 0,56.6933 -56.6933,0 0,-56.6933 z" /></g><g
         transform="matrix(0.06,0,0,-0.06,24,225)"
         id="g724"><path
           inkscape:connector-curvature="0"
           id="path726"
           style="fill:#000000;fill-opacity:1;fill-rule:evenodd;stroke:none"
           d="m 718.91562,2851.6239 c 15.65544,0 28.34669,12.6913 28.34669,28.3467 0,15.6555 -12.69125,28.3467 -28.34669,28.3467 -15.65545,0 -28.3467,-12.6912 -28.3467,-28.3467 0,-15.6554 12.69125,-28.3467 28.3467,-28.3467 z" /></g><g
         transform="matrix(0,0.06000001,0.05999999,0,63.588535,43.414164)"
         id="g728"><path
           inkscape:connector-curvature="0"
           id="path730"
           style="fill:none;stroke:#000000;stroke-width:30.89730072;stroke-linecap:butt;stroke-linejoin:miter;stroke-miterlimit:10;stroke-opacity:1;stroke-dasharray:none"
           d="m 174.8067,59.1067 c 0,15.65545 -12.69125,28.3467 -28.3467,28.3467 -15.65545,0 -28.3467,-12.69125 -28.3467,-28.3467 0,-15.65545 12.69125,-28.3467 28.3467,-28.3467 15.65545,0 28.3467,12.69125 28.3467,28.3467 z" /></g><g
         transform="matrix(0.06,0,0,-0.06,24,225)"
         id="g732"><path
           inkscape:connector-curvature="0"
           id="path734"
           style="fill:#000000;fill-opacity:1;fill-rule:evenodd;stroke:none"
           d="m 600.79593,2908.2973 c -15.65545,0 -28.3467,-12.6912 -28.3467,-28.3467 0,-15.6554 12.69125,-28.3467 28.3467,-28.3467 15.65545,0 28.3467,12.6913 28.3467,28.3467 0,15.6555 -12.69125,28.3467 -28.3467,28.3467 z" /></g><g
         transform="matrix(0,-0.06000001,-0.05999999,0,70.681375,60.990564)"
         id="g736"><path
           inkscape:connector-curvature="0"
           id="path738"
           style="fill:none;stroke:#000000;stroke-width:30.89730072;stroke-linecap:butt;stroke-linejoin:miter;stroke-miterlimit:10;stroke-opacity:1;stroke-dasharray:none"
           d="m 174.8067,177.227 c 0,15.65545 -12.69125,28.3467 -28.3467,28.3467 -15.65545,0 -28.3467,-12.69125 -28.3467,-28.3467 0,-15.65545 12.69125,-28.3467 28.3467,-28.3467 15.65545,0 28.3467,12.69125 28.3467,28.3467 z" /></g><g
         transform="matrix(0.06,0,0,-0.06,24,225)"
         id="g740"><g
           transform="matrix(0,1.0000002,-0.99999988,0,778.02291,2733.4906)"
           id="g742"><path
             inkscape:connector-curvature="0"
             id="path744"
             style="fill:#000000;fill-opacity:1;fill-rule:nonzero;stroke:none"
             d="m 118.113,148.88 56.6933,0 0,56.6933 -56.6933,0 0,-56.6933 z" /></g></g><g
         transform="matrix(0,-0.06000001,-0.05999999,0,70.681375,60.990564)"
         id="g746"><path
           inkscape:connector-curvature="0"
           id="path748"
           style="fill:none;stroke:#000000;stroke-width:30.89730072;stroke-linecap:butt;stroke-linejoin:miter;stroke-miterlimit:10;stroke-opacity:1;stroke-dasharray:none"
           d="m 118.113,148.88 56.6933,0 0,56.6933 -56.6933,0 0,-56.6933 z" /></g><g
         transform="matrix(0.06,0,0,-0.06,24,225)"
         id="g750"><path
           inkscape:connector-curvature="0"
           id="path752"
           style="fill:#000000;fill-opacity:1;fill-rule:evenodd;stroke:none"
           d="m 718.91622,2908.2973 c -15.65545,0 -28.3467,-12.6912 -28.3467,-28.3467 0,-15.6554 12.69125,-28.3467 28.3467,-28.3467 15.65544,0 28.34669,12.6913 28.34669,28.3467 0,15.6555 -12.69125,28.3467 -28.34669,28.3467 z" /></g><g
         transform="matrix(0,-0.06000001,-0.05999999,0,70.681375,60.990564)"
         id="g754"><path
           inkscape:connector-curvature="0"
           id="path756"
           style="fill:none;stroke:#000000;stroke-width:30.89730072;stroke-linecap:butt;stroke-linejoin:miter;stroke-miterlimit:10;stroke-opacity:1;stroke-dasharray:none"
           d="m 174.8067,59.1067 c 0,15.65545 -12.69125,28.3467 -28.3467,28.3467 -15.65545,0 -28.3467,-12.69125 -28.3467,-28.3467 0,-15.65545 12.69125,-28.3467 28.3467,-28.3467 15.65545,0 28.3467,12.69125 28.3467,28.3467 z" /></g><g
         transform="matrix(0.06,0,0,-0.06,24,225)"
         id="g758"><path
           inkscape:connector-curvature="0"
           id="path760"
           style="fill:#000000;fill-opacity:1;fill-rule:evenodd;stroke:none"
           d="m 1437.0368,2851.6039 c 15.6555,0 28.3467,12.6913 28.3467,28.3467 0,15.6555 -12.6912,28.3467 -28.3467,28.3467 -15.6554,0 -28.3467,-12.6912 -28.3467,-28.3467 0,-15.6554 12.6913,-28.3467 28.3467,-28.3467 z" /></g><g
         transform="matrix(0,0.06000001,0.05999999,0,99.588594,43.415364)"
         id="g762"><path
           inkscape:connector-curvature="0"
           id="path764"
           style="fill:none;stroke:#000000;stroke-width:30.89730072;stroke-linecap:butt;stroke-linejoin:miter;stroke-miterlimit:10;stroke-opacity:1;stroke-dasharray:none"
           d="m 174.8067,177.227 c 0,15.65545 -12.69125,28.3467 -28.3467,28.3467 -15.65545,0 -28.3467,-12.69125 -28.3467,-28.3467 0,-15.65545 12.69125,-28.3467 28.3467,-28.3467 15.65545,0 28.3467,12.69125 28.3467,28.3467 z" /></g><g
         transform="matrix(0.06,0,0,-0.06,24,225)"
         id="g766"><g
           transform="matrix(0,-1.0000002,0.99999988,0,1259.8099,3026.4106)"
           id="g768"><path
             inkscape:connector-curvature="0"
             id="path770"
             style="fill:#000000;fill-opacity:1;fill-rule:nonzero;stroke:none"
             d="m 118.113,148.88 56.6933,0 0,56.6933 -56.6933,0 0,-56.6933 z" /></g></g><g
         transform="matrix(0,0.06000001,0.05999999,0,99.588594,43.415364)"
         id="g772"><path
           inkscape:connector-curvature="0"
           id="path774"
           style="fill:none;stroke:#000000;stroke-width:30.89730072;stroke-linecap:butt;stroke-linejoin:miter;stroke-miterlimit:10;stroke-opacity:1;stroke-dasharray:none"
           d="m 118.113,148.88 56.6933,0 0,56.6933 -56.6933,0 0,-56.6933 z" /></g><g
         transform="matrix(0.06,0,0,-0.06,24,225)"
         id="g776"><path
           inkscape:connector-curvature="0"
           id="path778"
           style="fill:#000000;fill-opacity:1;fill-rule:evenodd;stroke:none"
           d="m 1318.9165,2851.6039 c 15.6555,0 28.3467,12.6913 28.3467,28.3467 0,15.6555 -12.6912,28.3467 -28.3467,28.3467 -15.6554,0 -28.3467,-12.6912 -28.3467,-28.3467 0,-15.6554 12.6913,-28.3467 28.3467,-28.3467 z" /></g><g
         transform="matrix(0,0.06000001,0.05999999,0,99.588594,43.415364)"
         id="g780"><path
           inkscape:connector-curvature="0"
           id="path782"
           style="fill:none;stroke:#000000;stroke-width:30.89730072;stroke-linecap:butt;stroke-linejoin:miter;stroke-miterlimit:10;stroke-opacity:1;stroke-dasharray:none"
           d="m 174.8067,59.1067 c 0,15.65545 -12.69125,28.3467 -28.3467,28.3467 -15.65545,0 -28.3467,-12.69125 -28.3467,-28.3467 0,-15.65545 12.69125,-28.3467 28.3467,-28.3467 15.65545,0 28.3467,12.69125 28.3467,28.3467 z" /></g><g
         transform="matrix(0.06,0,0,-0.06,24,225)"
         id="g784"><path
           inkscape:connector-curvature="0"
           id="path786"
           style="fill:#000000;fill-opacity:1;fill-rule:evenodd;stroke:none"
           d="m 1200.7929,2908.2973 c -15.6555,0 -28.3467,-12.6912 -28.3467,-28.3467 0,-15.6554 12.6912,-28.3467 28.3467,-28.3467 15.6554,0 28.3467,12.6913 28.3467,28.3467 0,15.6555 -12.6913,28.3467 -28.3467,28.3467 z" /></g><g
         transform="matrix(0,-0.06000001,-0.05999999,0,106.68119,60.990564)"
         id="g788"><path
           inkscape:connector-curvature="0"
           id="path790"
           style="fill:none;stroke:#000000;stroke-width:30.89730072;stroke-linecap:butt;stroke-linejoin:miter;stroke-miterlimit:10;stroke-opacity:1;stroke-dasharray:none"
           d="m 174.8067,177.227 c 0,15.65545 -12.69125,28.3467 -28.3467,28.3467 -15.65545,0 -28.3467,-12.69125 -28.3467,-28.3467 0,-15.65545 12.69125,-28.3467 28.3467,-28.3467 15.65545,0 28.3467,12.69125 28.3467,28.3467 z" /></g><g
         transform="matrix(0.06,0,0,-0.06,24,225)"
         id="g792"><g
           transform="matrix(0,1.0000002,-0.99999988,0,1378.0198,2733.4906)"
           id="g794"><path
             inkscape:connector-curvature="0"
             id="path796"
             style="fill:#000000;fill-opacity:1;fill-rule:nonzero;stroke:none"
             d="m 118.113,148.88 56.6933,0 0,56.6933 -56.6933,0 0,-56.6933 z" /></g></g><g
         transform="matrix(0,-0.06000001,-0.05999999,0,106.68119,60.990564)"
         id="g798"><path
           inkscape:connector-curvature="0"
           id="path800"
           style="fill:none;stroke:#000000;stroke-width:30.89730072;stroke-linecap:butt;stroke-linejoin:miter;stroke-miterlimit:10;stroke-opacity:1;stroke-dasharray:none"
           d="m 118.113,148.88 56.6933,0 0,56.6933 -56.6933,0 0,-56.6933 z" /></g><g
         transform="matrix(0.06,0,0,-0.06,24,225)"
         id="g802"><path
           inkscape:connector-curvature="0"
           id="path804"
           style="fill:#000000;fill-opacity:1;fill-rule:evenodd;stroke:none"
           d="m 1318.9131,2908.2973 c -15.6554,0 -28.3467,-12.6912 -28.3467,-28.3467 0,-15.6554 12.6913,-28.3467 28.3467,-28.3467 15.6555,0 28.3467,12.6913 28.3467,28.3467 0,15.6555 -12.6912,28.3467 -28.3467,28.3467 z" /></g><g
         transform="matrix(0,-0.06000001,-0.05999999,0,106.68119,60.990564)"
         id="g806"><path
           inkscape:connector-curvature="0"
           id="path808"
           style="fill:none;stroke:#000000;stroke-width:30.89730072;stroke-linecap:butt;stroke-linejoin:miter;stroke-miterlimit:10;stroke-opacity:1;stroke-dasharray:none"
           d="m 174.8067,59.1067 c 0,15.65545 -12.69125,28.3467 -28.3467,28.3467 -15.65545,0 -28.3467,-12.69125 -28.3467,-28.3467 0,-15.65545 12.69125,-28.3467 28.3467,-28.3467 15.65545,0 28.3467,12.69125 28.3467,28.3467 z" /></g><g
         transform="matrix(0.06,0,0,-0.06,24,225)"
         id="g810"><path
           inkscape:connector-curvature="0"
           id="path812"
           style="fill:#000000;fill-opacity:1;fill-rule:evenodd;stroke:none"
           d="m 1826.3098,2659.8646 c -18.2254,0 -33,14.7746 -33,33 0,18.2254 14.7746,33 33,33 18.2254,0 33,-14.7746 33,-33 0,-18.2254 -14.7746,-33 -33,-33 z" /></g><g
         transform="matrix(0,0.06000001,-0.05999999,0,149.18099,42.581964)"
         id="g814"><path
           inkscape:connector-curvature="0"
           id="path816"
           style="fill:none;stroke:#000000;stroke-width:36;stroke-linecap:butt;stroke-linejoin:miter;stroke-miterlimit:10;stroke-opacity:1;stroke-dasharray:none"
           d="m 380.436,260.04 c 0,18.2254 -14.7746,33 -33,33 -18.2254,0 -33,-14.7746 -33,-33 0,-18.2254 14.7746,-33 33,-33 18.2254,0 33,14.7746 33,33 z" /></g><g
         transform="matrix(0.06,0,0,-0.06,24,225)"
         id="g818"><path
           inkscape:connector-curvature="0"
           id="path820"
           style="fill:#000000;fill-opacity:1;fill-rule:evenodd;stroke:none"
           d="m 1826.3098,2966.9566 c -18.2254,0 -33,14.7746 -33,33 0,18.2254 14.7746,33 33,33 18.2254,0 33,-14.7746 33,-33 0,-18.2254 -14.7746,-33 -33,-33 z" /></g><g
         transform="matrix(0,0.06000001,-0.05999999,0,149.18099,42.581964)"
         id="g822"><path
           inkscape:connector-curvature="0"
           id="path824"
           style="fill:none;stroke:#000000;stroke-width:36;stroke-linecap:butt;stroke-linejoin:miter;stroke-miterlimit:10;stroke-opacity:1;stroke-dasharray:none"
           d="m 73.344,260.04 c 0,18.2254 -14.774603,33 -33,33 -18.225397,0 -33,-14.7746 -33,-33 0,-18.2254 14.774603,-33 33,-33 18.225397,0 33,14.7746 33,33 z" /></g><g
         transform="matrix(0.06,0,0,-0.06,24,225)"
         id="g826"><path
           inkscape:connector-curvature="0"
           id="path828"
           style="fill:#000000;fill-opacity:1;fill-rule:evenodd;stroke:none"
           d="m 2038.9138,2659.8646 c -18.2254,0 -33,14.7746 -33,33 0,18.2254 14.7746,33 33,33 18.2254,0 33,-14.7746 33,-33 0,-18.2254 -14.7746,-33 -33,-33 z" /></g><g
         transform="matrix(0,0.06000001,-0.05999999,0,149.18099,42.581964)"
         id="g830"><path
           inkscape:connector-curvature="0"
           id="path832"
           style="fill:none;stroke:#000000;stroke-width:36;stroke-linecap:butt;stroke-linejoin:miter;stroke-miterlimit:10;stroke-opacity:1;stroke-dasharray:none"
           d="m 380.436,47.436 c 0,18.225397 -14.7746,33 -33,33 -18.2254,0 -33,-14.774603 -33,-33 0,-18.225397 14.7746,-33 33,-33 18.2254,0 33,14.774603 33,33 z" /></g><g
         transform="matrix(0.06,0,0,-0.06,24,225)"
         id="g834"><path
           inkscape:connector-curvature="0"
           id="path836"
           style="fill:#000000;fill-opacity:1;fill-rule:evenodd;stroke:none"
           d="m 2038.9138,2966.9566 c -18.2254,0 -33,14.7746 -33,33 0,18.2254 14.7746,33 33,33 18.2254,0 33,-14.7746 33,-33 0,-18.2254 -14.7746,-33 -33,-33 z" /></g><g
         transform="matrix(0,0.06000001,-0.05999999,0,149.18099,42.581964)"
         id="g838"><path
           inkscape:connector-curvature="0"
           id="path840"
           style="fill:none;stroke:#000000;stroke-width:36;stroke-linecap:butt;stroke-linejoin:miter;stroke-miterlimit:10;stroke-opacity:1;stroke-dasharray:none"
           d="m 73.344,47.436 c 0,18.225397 -14.774603,33 -33,33 -18.225397,0 -33,-14.774603 -33,-33 0,-18.225397 14.774603,-33 33,-33 18.225397,0 33,14.774603 33,33 z" /></g><g
         transform="matrix(0.06,0,0,-0.06,24,225)"
         id="g842"><path
           inkscape:connector-curvature="0"
           id="path844"
           style="fill:#000000;fill-opacity:1;fill-rule:evenodd;stroke:none"
           d="m 1826.3098,2659.8646 c -18.2254,0 -33,14.7746 -33,33 0,18.2254 14.7746,33 33,33 18.2254,0 33,-14.7746 33,-33 0,-18.2254 -14.7746,-33 -33,-33 z" /></g><g
         transform="matrix(0,0.06000001,-0.05999999,0,149.18099,42.581964)"
         id="g846"><path
           inkscape:connector-curvature="0"
           id="path848"
           style="fill:none;stroke:#000000;stroke-width:36;stroke-linecap:butt;stroke-linejoin:miter;stroke-miterlimit:10;stroke-opacity:1;stroke-dasharray:none"
           d="m 380.436,260.04 c 0,18.2254 -14.7746,33 -33,33 -18.2254,0 -33,-14.7746 -33,-33 0,-18.2254 14.7746,-33 33,-33 18.2254,0 33,14.7746 33,33 z" /></g><g
         transform="matrix(0.06,0,0,-0.06,24,225)"
         id="g850"><path
           inkscape:connector-curvature="0"
           id="path852"
           style="fill:#000000;fill-opacity:1;fill-rule:evenodd;stroke:none"
           d="m 1826.3098,2966.9566 c -18.2254,0 -33,14.7746 -33,33 0,18.2254 14.7746,33 33,33 18.2254,0 33,-14.7746 33,-33 0,-18.2254 -14.7746,-33 -33,-33 z" /></g><g
         transform="matrix(0,0.06000001,-0.05999999,0,149.18099,42.581964)"
         id="g854"><path
           inkscape:connector-curvature="0"
           id="path856"
           style="fill:none;stroke:#000000;stroke-width:36;stroke-linecap:butt;stroke-linejoin:miter;stroke-miterlimit:10;stroke-opacity:1;stroke-dasharray:none"
           d="m 73.344,260.04 c 0,18.2254 -14.774603,33 -33,33 -18.225397,0 -33,-14.7746 -33,-33 0,-18.2254 14.774603,-33 33,-33 18.225397,0 33,14.7746 33,33 z" /></g><g
         transform="matrix(0.06,0,0,-0.06,24,225)"
         id="g858"><path
           inkscape:connector-curvature="0"
           id="path860"
           style="fill:#000000;fill-opacity:1;fill-rule:evenodd;stroke:none"
           d="m 2038.9138,2659.8646 c -18.2254,0 -33,14.7746 -33,33 0,18.2254 14.7746,33 33,33 18.2254,0 33,-14.7746 33,-33 0,-18.2254 -14.7746,-33 -33,-33 z" /></g><g
         transform="matrix(0,0.06000001,-0.05999999,0,149.18099,42.581964)"
         id="g862"><path
           inkscape:connector-curvature="0"
           id="path864"
           style="fill:none;stroke:#000000;stroke-width:36;stroke-linecap:butt;stroke-linejoin:miter;stroke-miterlimit:10;stroke-opacity:1;stroke-dasharray:none"
           d="m 380.436,47.436 c 0,18.225397 -14.7746,33 -33,33 -18.2254,0 -33,-14.774603 -33,-33 0,-18.225397 14.7746,-33 33,-33 18.2254,0 33,14.774603 33,33 z" /></g><g
         transform="matrix(0.06,0,0,-0.06,24,225)"
         id="g866"><path
           inkscape:connector-curvature="0"
           id="path868"
           style="fill:#000000;fill-opacity:1;fill-rule:evenodd;stroke:none"
           d="m 2038.9138,2966.9566 c -18.2254,0 -33,14.7746 -33,33 0,18.2254 14.7746,33 33,33 18.2254,0 33,-14.7746 33,-33 0,-18.2254 -14.7746,-33 -33,-33 z" /></g><g
         transform="matrix(0,0.06000001,-0.05999999,0,149.18099,42.581964)"
         id="g870"><path
           inkscape:connector-curvature="0"
           id="path872"
           style="fill:none;stroke:#000000;stroke-width:36;stroke-linecap:butt;stroke-linejoin:miter;stroke-miterlimit:10;stroke-opacity:1;stroke-dasharray:none"
           d="m 73.344,47.436 c 0,18.225397 -14.774603,33 -33,33 -18.225397,0 -33,-14.774603 -33,-33 0,-18.225397 14.774603,-33 33,-33 18.225397,0 33,14.774603 33,33 z" /></g><g
         transform="matrix(0.06,0,0,-0.06,24,225)"
         id="g874"><path
           inkscape:connector-curvature="0"
           id="path876"
           style="fill:#000000;fill-opacity:1;fill-rule:evenodd;stroke:none"
           d="m 1471.9198,1679.9604 c 0,18.2254 -14.7746,33 -33,33 -18.2254,0 -33,-14.7746 -33,-33 0,-18.2254 14.7746,-33.0001 33,-33.0001 18.2254,0 33,14.7747 33,33.0001 z" /></g><g
         transform="matrix(0.06,0,0,-0.06,105.58319,128.95438)"
         id="g878"><path
           inkscape:connector-curvature="0"
           id="path880"
           style="fill:none;stroke:#000000;stroke-width:36;stroke-linecap:butt;stroke-linejoin:miter;stroke-miterlimit:10;stroke-opacity:1;stroke-dasharray:none"
           d="m 112.2,79.2 c 0,18.225397 -14.774603,33 -33,33 -18.225397,0 -33,-14.774603 -33,-33 0,-18.225397 14.774603,-33 33,-33 18.225397,0 33,14.774603 33,33 z" /></g><g
         transform="matrix(0.06,0,0,-0.06,24,225)"
         id="g882"><path
           inkscape:connector-curvature="0"
           id="path884"
           style="fill:#000000;fill-opacity:1;fill-rule:evenodd;stroke:none"
           d="m 1471.9198,2039.9604 c 0,18.2254 -14.7746,33 -33,33 -18.2254,0 -33,-14.7746 -33,-33 0,-18.2254 14.7746,-33 33,-33 18.2254,0 33,14.7746 33,33 z" /></g><g
         transform="matrix(0.06,0,0,-0.06,105.58319,128.95438)"
         id="g886"><path
           inkscape:connector-curvature="0"
           id="path888"
           style="fill:none;stroke:#000000;stroke-width:36;stroke-linecap:butt;stroke-linejoin:miter;stroke-miterlimit:10;stroke-opacity:1;stroke-dasharray:none"
           d="m 112.2,439.2 c 0,18.2254 -14.774603,33 -33,33 -18.225397,0 -33,-14.7746 -33,-33 0,-18.2254 14.774603,-33 33,-33 18.225397,0 33,14.7746 33,33 z" /></g><g
         transform="matrix(0.06,0,0,-0.06,24,225)"
         id="g890"><path
           inkscape:connector-curvature="0"
           id="path892"
           style="fill:#000000;fill-opacity:1;fill-rule:evenodd;stroke:none"
           d="m 1198.9199,2192.9605 c -18.2254,0 -33,-14.7747 -33,-33 0,-18.2254 14.7746,-33.0001 33,-33.0001 18.2254,0 33,14.7747 33,33.0001 0,18.2253 -14.7746,33 -33,33 z" /></g><g
         transform="matrix(0,-0.06000001,-0.05999999,0,99.031194,98.102376)"
         id="g894"><path
           inkscape:connector-curvature="0"
           id="path896"
           style="fill:none;stroke:#000000;stroke-width:36;stroke-linecap:butt;stroke-linejoin:miter;stroke-miterlimit:10;stroke-opacity:1;stroke-dasharray:none"
           d="m 78,51.6 c 0,18.225397 -14.774603,33 -33,33 -18.225397,0 -33,-14.774603 -33,-33 0,-18.225397 14.774603,-33 33,-33 18.225397,0 33,14.774603 33,33 z" /></g><g
         transform="matrix(0.06,0,0,-0.06,24,225)"
         id="g898"><path
           inkscape:connector-curvature="0"
           id="path900"
           style="fill:#000000;fill-opacity:1;fill-rule:evenodd;stroke:none"
           d="m 1198.9199,2672.9606 c -18.2254,0 -33,-14.7746 -33,-33 0,-18.2254 14.7746,-33 33,-33 18.2254,0 33,14.7746 33,33 0,18.2254 -14.7746,33 -33,33 z" /></g><g
         transform="matrix(0,-0.06000001,-0.05999999,0,99.031194,98.102376)"
         id="g902"><path
           inkscape:connector-curvature="0"
           id="path904"
           style="fill:none;stroke:#000000;stroke-width:36;stroke-linecap:butt;stroke-linejoin:miter;stroke-miterlimit:10;stroke-opacity:1;stroke-dasharray:none"
           d="m 558,51.6 c 0,18.225397 -14.7746,33 -33,33 -18.2254,0 -33,-14.774603 -33,-33 0,-18.225397 14.7746,-33 33,-33 18.2254,0 33,14.774603 33,33 z" /></g></g><g
       id="g906"
       transform="matrix(0.06,0,0,-0.06,24,225)" /></g></svg>